<svg width="50" height="50" viewBox="0 0 50 50" xmlns="http://www.w3.org/2000/svg">
    <g fill="none" fill-rule="evenodd">
        <circle stroke="#FFF" stroke-width="2" cx="25" cy="25" r="24"/>
        <path d="M22.12 29.16c.32.32.84.32 1.16 0 .33-.33.33-.85 0-1.17l-2.47-2.47h9.83c.45 0 .82-.37.82-.82 0-.46-.37-.82-.82-.82h-9.83l2.47-2.48c.33-.32.33-.84 0-1.16a.82.82 0 0 0-1.16 0l-3.87 3.87c-.03.03-.06.06-.08.1l-.01.01-.01.01-.01.01v.01l-.01.01c-.01.01-.01.03-.02.04l-.01.01v.01l-.01.01v.01a.74.74 0 0 0-.09.36c0 .13.03.25.09.36v.01l.01.01.01.02c.01.01.01.02.02.03l.01.02.01.02.01.01.01.01c.02.03.05.06.08.09l3.87 3.88z" fill="#FFF" fill-rule="nonzero"/>
    </g>
</svg>
