<svg width="245" height="281" viewBox="0 0 245 281" xmlns="http://www.w3.org/2000/svg">
    <defs>
        <linearGradient x1="11.738%" y1="100%" x2="88.262%" y2="0%" id="a">
            <stop stop-color="#72BE44" offset="0%"/>
            <stop stop-color="#00A0FD" offset="100%"/>
        </linearGradient>
    </defs>
    <path d="M197.137 451.806c1.18 0 2.136.955 2.136 2.133a2.135 2.135 0 0 1-2.136 2.132A2.135 2.135 0 0 1 195 453.94c0-1.178.957-2.133 2.137-2.133zm18.517 0c1.18 0 2.137.955 2.137 2.133a2.135 2.135 0 0 1-2.137 2.132 2.135 2.135 0 0 1-2.137-2.132c0-1.178.957-2.133 2.137-2.133zm18.517 0c1.18 0 2.137.955 2.137 2.133a2.135 2.135 0 0 1-2.137 2.132 2.135 2.135 0 0 1-2.136-2.132c0-1.178.956-2.133 2.136-2.133zm18.518 0c1.18 0 2.136.955 2.136 2.133a2.135 2.135 0 0 1-2.136 2.132 2.135 2.135 0 0 1-2.137-2.132c0-1.178.957-2.133 2.137-2.133zm18.517 0c1.18 0 2.137.955 2.137 2.133a2.135 2.135 0 0 1-2.137 2.132 2.135 2.135 0 0 1-2.136-2.132c0-1.178.956-2.133 2.136-2.133zm18.518 0c1.18 0 2.136.955 2.136 2.133a2.135 2.135 0 0 1-2.136 2.132 2.135 2.135 0 0 1-2.137-2.132c0-1.178.957-2.133 2.137-2.133zm18.517 0c1.18 0 2.137.955 2.137 2.133a2.135 2.135 0 0 1-2.137 2.132 2.135 2.135 0 0 1-2.136-2.132c0-1.178.956-2.133 2.136-2.133zm18.518 0c1.18 0 2.136.955 2.136 2.133a2.135 2.135 0 0 1-2.136 2.132 2.135 2.135 0 0 1-2.137-2.132c0-1.178.957-2.133 2.137-2.133zm18.517 0c1.18 0 2.137.955 2.137 2.133a2.135 2.135 0 0 1-2.137 2.132 2.135 2.135 0 0 1-2.136-2.132c0-1.178.956-2.133 2.136-2.133zm18.518 0c1.18 0 2.136.955 2.136 2.133a2.135 2.135 0 0 1-2.136 2.132 2.135 2.135 0 0 1-2.137-2.132c0-1.178.957-2.133 2.137-2.133zm18.517 0c1.18 0 2.137.955 2.137 2.133a2.135 2.135 0 0 1-2.137 2.132 2.135 2.135 0 0 1-2.136-2.132c0-1.178.956-2.133 2.136-2.133zm18.518 0c1.18 0 2.136.955 2.136 2.133a2.135 2.135 0 0 1-2.136 2.132 2.135 2.135 0 0 1-2.137-2.132c0-1.178.957-2.133 2.137-2.133zm18.507 0c1.18 0 2.136.955 2.136 2.133a2.135 2.135 0 0 1-2.136 2.132 2.135 2.135 0 0 1-2.137-2.132c0-1.178.957-2.133 2.137-2.133zm18.517 0c1.18 0 2.137.955 2.137 2.133a2.135 2.135 0 0 1-2.137 2.132 2.135 2.135 0 0 1-2.136-2.132c0-1.178.956-2.133 2.136-2.133zm-240.716-18.482c1.18 0 2.136.955 2.136 2.132a2.135 2.135 0 0 1-2.136 2.133 2.135 2.135 0 0 1-2.137-2.133c0-1.177.957-2.132 2.137-2.132zm18.517 0c1.18 0 2.137.955 2.137 2.132a2.135 2.135 0 0 1-2.137 2.133 2.135 2.135 0 0 1-2.137-2.133c0-1.177.957-2.132 2.137-2.132zm18.517 0c1.18 0 2.137.955 2.137 2.132a2.135 2.135 0 0 1-2.137 2.133 2.135 2.135 0 0 1-2.136-2.133c0-1.177.956-2.132 2.136-2.132zm18.518 0c1.18 0 2.136.955 2.136 2.132a2.135 2.135 0 0 1-2.136 2.133 2.135 2.135 0 0 1-2.137-2.133c0-1.177.957-2.132 2.137-2.132zm18.517 0c1.18 0 2.137.955 2.137 2.132a2.135 2.135 0 0 1-2.137 2.133 2.135 2.135 0 0 1-2.136-2.133c0-1.177.956-2.132 2.136-2.132zm18.518 0c1.18 0 2.136.955 2.136 2.132a2.135 2.135 0 0 1-2.136 2.133 2.135 2.135 0 0 1-2.137-2.133c0-1.177.957-2.132 2.137-2.132zm18.517 0c1.18 0 2.137.955 2.137 2.132a2.135 2.135 0 0 1-2.137 2.133 2.135 2.135 0 0 1-2.136-2.133c0-1.177.956-2.132 2.136-2.132zm18.518 0c1.18 0 2.136.955 2.136 2.132a2.135 2.135 0 0 1-2.136 2.133 2.135 2.135 0 0 1-2.137-2.133c0-1.177.957-2.132 2.137-2.132zm18.517 0c1.18 0 2.137.955 2.137 2.132a2.135 2.135 0 0 1-2.137 2.133 2.135 2.135 0 0 1-2.136-2.133c0-1.177.956-2.132 2.136-2.132zm18.518 0c1.18 0 2.136.955 2.136 2.132a2.135 2.135 0 0 1-2.136 2.133 2.135 2.135 0 0 1-2.137-2.133c0-1.177.957-2.132 2.137-2.132zm18.517 0c1.18 0 2.137.955 2.137 2.132a2.135 2.135 0 0 1-2.137 2.133 2.135 2.135 0 0 1-2.136-2.133c0-1.177.956-2.132 2.136-2.132zm18.518 0c1.18 0 2.136.955 2.136 2.132a2.135 2.135 0 0 1-2.136 2.133 2.135 2.135 0 0 1-2.137-2.133c0-1.177.957-2.132 2.137-2.132zm18.507 0c1.18 0 2.136.955 2.136 2.132a2.135 2.135 0 0 1-2.136 2.133 2.135 2.135 0 0 1-2.137-2.133c0-1.177.957-2.132 2.137-2.132zm18.517 0c1.18 0 2.137.955 2.137 2.132a2.135 2.135 0 0 1-2.137 2.133 2.135 2.135 0 0 1-2.136-2.133c0-1.177.956-2.132 2.136-2.132zm-240.716-18.482c1.18 0 2.136.954 2.136 2.132a2.135 2.135 0 0 1-2.136 2.133 2.135 2.135 0 0 1-2.137-2.133c0-1.178.957-2.132 2.137-2.132zm18.517 0c1.18 0 2.137.954 2.137 2.132a2.135 2.135 0 0 1-2.137 2.133 2.135 2.135 0 0 1-2.137-2.133c0-1.178.957-2.132 2.137-2.132zm18.517 0c1.18 0 2.137.954 2.137 2.132a2.135 2.135 0 0 1-2.137 2.133 2.135 2.135 0 0 1-2.136-2.133c0-1.178.956-2.132 2.136-2.132zm18.518 0c1.18 0 2.136.954 2.136 2.132a2.135 2.135 0 0 1-2.136 2.133 2.135 2.135 0 0 1-2.137-2.133c0-1.178.957-2.132 2.137-2.132zm18.517 0c1.18 0 2.137.954 2.137 2.132a2.135 2.135 0 0 1-2.137 2.133 2.135 2.135 0 0 1-2.136-2.133c0-1.178.956-2.132 2.136-2.132zm18.518 0c1.18 0 2.136.954 2.136 2.132a2.135 2.135 0 0 1-2.136 2.133 2.135 2.135 0 0 1-2.137-2.133c0-1.178.957-2.132 2.137-2.132zm18.517 0c1.18 0 2.137.954 2.137 2.132a2.135 2.135 0 0 1-2.137 2.133 2.135 2.135 0 0 1-2.136-2.133c0-1.178.956-2.132 2.136-2.132zm18.518 0c1.18 0 2.136.954 2.136 2.132a2.135 2.135 0 0 1-2.136 2.133 2.135 2.135 0 0 1-2.137-2.133c0-1.178.957-2.132 2.137-2.132zm18.517 0c1.18 0 2.137.954 2.137 2.132a2.135 2.135 0 0 1-2.137 2.133 2.135 2.135 0 0 1-2.136-2.133c0-1.178.956-2.132 2.136-2.132zm18.518 0c1.18 0 2.136.954 2.136 2.132a2.135 2.135 0 0 1-2.136 2.133 2.135 2.135 0 0 1-2.137-2.133c0-1.178.957-2.132 2.137-2.132zm18.517 0c1.18 0 2.137.954 2.137 2.132a2.135 2.135 0 0 1-2.137 2.133 2.135 2.135 0 0 1-2.136-2.133c0-1.178.956-2.132 2.136-2.132zm18.518 0c1.18 0 2.136.954 2.136 2.132a2.135 2.135 0 0 1-2.136 2.133 2.135 2.135 0 0 1-2.137-2.133c0-1.178.957-2.132 2.137-2.132zm18.507 0c1.18 0 2.136.954 2.136 2.132a2.135 2.135 0 0 1-2.136 2.133 2.135 2.135 0 0 1-2.137-2.133c0-1.178.957-2.132 2.137-2.132zm18.517 0c1.18 0 2.137.954 2.137 2.132a2.135 2.135 0 0 1-2.137 2.133 2.135 2.135 0 0 1-2.136-2.133c0-1.178.956-2.132 2.136-2.132zm-240.716-18.483c1.18 0 2.136.955 2.136 2.133a2.135 2.135 0 0 1-2.136 2.132 2.135 2.135 0 0 1-2.137-2.132c0-1.178.957-2.133 2.137-2.133zm18.517 0c1.18 0 2.137.955 2.137 2.133a2.135 2.135 0 0 1-2.137 2.132 2.135 2.135 0 0 1-2.137-2.132c0-1.178.957-2.133 2.137-2.133zm18.517 0c1.18 0 2.137.955 2.137 2.133a2.135 2.135 0 0 1-2.137 2.132 2.135 2.135 0 0 1-2.136-2.132c0-1.178.956-2.133 2.136-2.133zm18.518 0c1.18 0 2.136.955 2.136 2.133a2.135 2.135 0 0 1-2.136 2.132 2.135 2.135 0 0 1-2.137-2.132c0-1.178.957-2.133 2.137-2.133zm18.517 0c1.18 0 2.137.955 2.137 2.133a2.135 2.135 0 0 1-2.137 2.132 2.135 2.135 0 0 1-2.136-2.132c0-1.178.956-2.133 2.136-2.133zm18.518 0c1.18 0 2.136.955 2.136 2.133a2.135 2.135 0 0 1-2.136 2.132 2.135 2.135 0 0 1-2.137-2.132c0-1.178.957-2.133 2.137-2.133zm18.517 0c1.18 0 2.137.955 2.137 2.133a2.135 2.135 0 0 1-2.137 2.132 2.135 2.135 0 0 1-2.136-2.132c0-1.178.956-2.133 2.136-2.133zm18.518 0c1.18 0 2.136.955 2.136 2.133a2.135 2.135 0 0 1-2.136 2.132 2.135 2.135 0 0 1-2.137-2.132c0-1.178.957-2.133 2.137-2.133zm18.517 0c1.18 0 2.137.955 2.137 2.133a2.135 2.135 0 0 1-2.137 2.132 2.135 2.135 0 0 1-2.136-2.132c0-1.178.956-2.133 2.136-2.133zm18.518 0c1.18 0 2.136.955 2.136 2.133a2.135 2.135 0 0 1-2.136 2.132 2.135 2.135 0 0 1-2.137-2.132c0-1.178.957-2.133 2.137-2.133zm18.517 0c1.18 0 2.137.955 2.137 2.133a2.135 2.135 0 0 1-2.137 2.132 2.135 2.135 0 0 1-2.136-2.132c0-1.178.956-2.133 2.136-2.133zm18.518 0c1.18 0 2.136.955 2.136 2.133a2.135 2.135 0 0 1-2.136 2.132 2.135 2.135 0 0 1-2.137-2.132c0-1.178.957-2.133 2.137-2.133zm18.507 0c1.18 0 2.136.955 2.136 2.133a2.135 2.135 0 0 1-2.136 2.132 2.135 2.135 0 0 1-2.137-2.132c0-1.178.957-2.133 2.137-2.133zm18.517 0c1.18 0 2.137.955 2.137 2.133a2.135 2.135 0 0 1-2.137 2.132 2.135 2.135 0 0 1-2.136-2.132c0-1.178.956-2.133 2.136-2.133zm-240.716-18.482c1.18 0 2.136.955 2.136 2.133a2.135 2.135 0 0 1-2.136 2.132A2.135 2.135 0 0 1 195 380.01c0-1.178.957-2.133 2.137-2.133zm18.517 0c1.18 0 2.137.955 2.137 2.133a2.135 2.135 0 0 1-2.137 2.132 2.135 2.135 0 0 1-2.137-2.132c0-1.178.957-2.133 2.137-2.133zm18.517 0c1.18 0 2.137.955 2.137 2.133a2.135 2.135 0 0 1-2.137 2.132 2.135 2.135 0 0 1-2.136-2.132c0-1.178.956-2.133 2.136-2.133zm18.518 0c1.18 0 2.136.955 2.136 2.133a2.135 2.135 0 0 1-2.136 2.132 2.135 2.135 0 0 1-2.137-2.132c0-1.178.957-2.133 2.137-2.133zm18.517 0c1.18 0 2.137.955 2.137 2.133a2.135 2.135 0 0 1-2.137 2.132 2.135 2.135 0 0 1-2.136-2.132c0-1.178.956-2.133 2.136-2.133zm18.518 0c1.18 0 2.136.955 2.136 2.133a2.135 2.135 0 0 1-2.136 2.132 2.135 2.135 0 0 1-2.137-2.132c0-1.178.957-2.133 2.137-2.133zm18.517 0c1.18 0 2.137.955 2.137 2.133a2.135 2.135 0 0 1-2.137 2.132 2.135 2.135 0 0 1-2.136-2.132c0-1.178.956-2.133 2.136-2.133zm18.518 0c1.18 0 2.136.955 2.136 2.133a2.135 2.135 0 0 1-2.136 2.132 2.135 2.135 0 0 1-2.137-2.132c0-1.178.957-2.133 2.137-2.133zm18.517 0c1.18 0 2.137.955 2.137 2.133a2.135 2.135 0 0 1-2.137 2.132 2.135 2.135 0 0 1-2.136-2.132c0-1.178.956-2.133 2.136-2.133zm18.518 0c1.18 0 2.136.955 2.136 2.133a2.135 2.135 0 0 1-2.136 2.132 2.135 2.135 0 0 1-2.137-2.132c0-1.178.957-2.133 2.137-2.133zm18.517 0c1.18 0 2.137.955 2.137 2.133a2.135 2.135 0 0 1-2.137 2.132 2.135 2.135 0 0 1-2.136-2.132c0-1.178.956-2.133 2.136-2.133zm18.518 0c1.18 0 2.136.955 2.136 2.133a2.135 2.135 0 0 1-2.136 2.132 2.135 2.135 0 0 1-2.137-2.132c0-1.178.957-2.133 2.137-2.133zm18.507 0c1.18 0 2.136.955 2.136 2.133a2.135 2.135 0 0 1-2.136 2.132 2.135 2.135 0 0 1-2.137-2.132c0-1.178.957-2.133 2.137-2.133zm18.517 0c1.18 0 2.137.955 2.137 2.133a2.135 2.135 0 0 1-2.137 2.132 2.135 2.135 0 0 1-2.136-2.132c0-1.178.956-2.133 2.136-2.133zm-240.716-18.479c1.18 0 2.136.955 2.136 2.132a2.135 2.135 0 0 1-2.136 2.133A2.135 2.135 0 0 1 195 361.53c0-1.177.957-2.132 2.137-2.132zm18.517 0c1.18 0 2.137.955 2.137 2.132a2.135 2.135 0 0 1-2.137 2.133 2.135 2.135 0 0 1-2.137-2.133c0-1.177.957-2.132 2.137-2.132zm18.517 0c1.18 0 2.137.955 2.137 2.132a2.135 2.135 0 0 1-2.137 2.133 2.135 2.135 0 0 1-2.136-2.133c0-1.177.956-2.132 2.136-2.132zm18.518 0c1.18 0 2.136.955 2.136 2.132a2.135 2.135 0 0 1-2.136 2.133 2.135 2.135 0 0 1-2.137-2.133c0-1.177.957-2.132 2.137-2.132zm18.517 0c1.18 0 2.137.955 2.137 2.132a2.135 2.135 0 0 1-2.137 2.133 2.135 2.135 0 0 1-2.136-2.133c0-1.177.956-2.132 2.136-2.132zm18.518 0c1.18 0 2.136.955 2.136 2.132a2.135 2.135 0 0 1-2.136 2.133 2.135 2.135 0 0 1-2.137-2.133c0-1.177.957-2.132 2.137-2.132zm18.517 0c1.18 0 2.137.955 2.137 2.132a2.135 2.135 0 0 1-2.137 2.133 2.135 2.135 0 0 1-2.136-2.133c0-1.177.956-2.132 2.136-2.132zm18.518 0c1.18 0 2.136.955 2.136 2.132a2.135 2.135 0 0 1-2.136 2.133 2.135 2.135 0 0 1-2.137-2.133c0-1.177.957-2.132 2.137-2.132zm18.517 0c1.18 0 2.137.955 2.137 2.132a2.135 2.135 0 0 1-2.137 2.133 2.135 2.135 0 0 1-2.136-2.133c0-1.177.956-2.132 2.136-2.132zm18.518 0c1.18 0 2.136.955 2.136 2.132a2.135 2.135 0 0 1-2.136 2.133 2.135 2.135 0 0 1-2.137-2.133c0-1.177.957-2.132 2.137-2.132zm18.517 0c1.18 0 2.137.955 2.137 2.132a2.135 2.135 0 0 1-2.137 2.133 2.135 2.135 0 0 1-2.136-2.133c0-1.177.956-2.132 2.136-2.132zm18.518 0c1.18 0 2.136.955 2.136 2.132a2.135 2.135 0 0 1-2.136 2.133 2.135 2.135 0 0 1-2.137-2.133c0-1.177.957-2.132 2.137-2.132zm18.507 0c1.18 0 2.136.955 2.136 2.132a2.135 2.135 0 0 1-2.136 2.133 2.135 2.135 0 0 1-2.137-2.133c0-1.177.957-2.132 2.137-2.132zm18.517 0c1.18 0 2.137.955 2.137 2.132a2.135 2.135 0 0 1-2.137 2.133 2.135 2.135 0 0 1-2.136-2.133c0-1.177.956-2.132 2.136-2.132zm-148.13-17.062c1.18 0 2.137.955 2.137 2.133a2.135 2.135 0 0 1-2.136 2.132 2.135 2.135 0 0 1-2.137-2.132c0-1.178.957-2.133 2.137-2.133zm111.106 0c1.18 0 2.136.955 2.136 2.133a2.135 2.135 0 0 1-2.136 2.132 2.135 2.135 0 0 1-2.137-2.132c0-1.178.957-2.133 2.137-2.133zm-203.692 0c1.18 0 2.136.955 2.136 2.133a2.135 2.135 0 0 1-2.136 2.132 2.135 2.135 0 0 1-2.137-2.132c0-1.178.957-2.133 2.137-2.133zm74.07 0c1.18 0 2.136.955 2.136 2.133a2.135 2.135 0 0 1-2.137 2.132 2.135 2.135 0 0 1-2.136-2.132c0-1.178.956-2.133 2.136-2.133zm74.07 0c1.18 0 2.136.955 2.136 2.133a2.135 2.135 0 0 1-2.137 2.132 2.135 2.135 0 0 1-2.136-2.132c0-1.178.956-2.133 2.136-2.133zm74.069 0c1.18 0 2.137.955 2.137 2.133a2.135 2.135 0 0 1-2.137 2.132 2.135 2.135 0 0 1-2.137-2.132c0-1.178.957-2.133 2.137-2.133zm-92.587 0c1.18 0 2.136.955 2.136 2.133a2.135 2.135 0 0 1-2.136 2.132 2.135 2.135 0 0 1-2.137-2.132c0-1.178.957-2.133 2.137-2.133zm37.035 0c1.18 0 2.136.955 2.136 2.133a2.135 2.135 0 0 1-2.136 2.132 2.135 2.135 0 0 1-2.137-2.132c0-1.178.957-2.133 2.137-2.133zm-129.623 0c1.18 0 2.137.955 2.137 2.133a2.135 2.135 0 0 1-2.137 2.132 2.135 2.135 0 0 1-2.136-2.132c0-1.178.956-2.133 2.136-2.133zm148.14 0c1.18 0 2.137.955 2.137 2.133a2.135 2.135 0 0 1-2.137 2.132 2.135 2.135 0 0 1-2.136-2.132c0-1.178.956-2.133 2.136-2.133zm55.552 0c1.18 0 2.137.955 2.137 2.133a2.135 2.135 0 0 1-2.137 2.132 2.135 2.135 0 0 1-2.136-2.132c0-1.178.956-2.133 2.136-2.133zm-185.174 0c1.18 0 2.136.955 2.136 2.133a2.135 2.135 0 0 1-2.136 2.132 2.135 2.135 0 0 1-2.137-2.132c0-1.178.957-2.133 2.137-2.133zm55.552 0c1.18 0 2.137.955 2.137 2.133a2.135 2.135 0 0 1-2.137 2.132 2.135 2.135 0 0 1-2.136-2.132c0-1.178.956-2.133 2.136-2.133zm-92.587 0c1.18 0 2.137.955 2.137 2.133a2.135 2.135 0 0 1-2.137 2.132 2.135 2.135 0 0 1-2.137-2.132c0-1.178.957-2.133 2.137-2.133zm148.14-18.482c1.18 0 2.136.955 2.136 2.132a2.135 2.135 0 0 1-2.136 2.133 2.135 2.135 0 0 1-2.137-2.133c0-1.177.957-2.132 2.137-2.132zm-166.657 0c1.18 0 2.136.955 2.136 2.132a2.135 2.135 0 0 1-2.136 2.133 2.135 2.135 0 0 1-2.137-2.133c0-1.177.957-2.132 2.137-2.132zm37.034 0c1.18 0 2.137.955 2.137 2.132a2.135 2.135 0 0 1-2.137 2.133 2.135 2.135 0 0 1-2.136-2.133c0-1.177.956-2.132 2.136-2.132zm37.035 0c1.18 0 2.137.955 2.137 2.132a2.135 2.135 0 0 1-2.137 2.133 2.135 2.135 0 0 1-2.136-2.133c0-1.177.956-2.132 2.136-2.132zm-18.517 0c1.18 0 2.136.955 2.136 2.132a2.135 2.135 0 0 1-2.136 2.133 2.135 2.135 0 0 1-2.137-2.133c0-1.177.957-2.132 2.137-2.132zm166.657 0c1.18 0 2.137.955 2.137 2.132a2.135 2.135 0 0 1-2.137 2.133 2.135 2.135 0 0 1-2.137-2.133c0-1.177.957-2.132 2.137-2.132zm-92.587 0c1.18 0 2.136.955 2.136 2.132a2.135 2.135 0 0 1-2.136 2.133 2.135 2.135 0 0 1-2.137-2.133c0-1.177.957-2.132 2.137-2.132zm55.552 0c1.18 0 2.137.955 2.137 2.132a2.135 2.135 0 0 1-2.137 2.133 2.135 2.135 0 0 1-2.136-2.133c0-1.177.956-2.132 2.136-2.132zm55.552 0c1.18 0 2.137.955 2.137 2.132a2.135 2.135 0 0 1-2.137 2.133 2.135 2.135 0 0 1-2.136-2.133c0-1.177.956-2.132 2.136-2.132zm-222.209 0c1.18 0 2.137.955 2.137 2.132a2.135 2.135 0 0 1-2.137 2.133 2.135 2.135 0 0 1-2.137-2.133c0-1.177.957-2.132 2.137-2.132zm92.587 0c1.18 0 2.137.955 2.137 2.132a2.135 2.135 0 0 1-2.137 2.133 2.135 2.135 0 0 1-2.136-2.133c0-1.177.956-2.132 2.136-2.132zm92.588 0c1.18 0 2.136.955 2.136 2.132a2.135 2.135 0 0 1-2.136 2.133 2.135 2.135 0 0 1-2.137-2.133c0-1.177.957-2.132 2.137-2.132zm-55.553 0c1.18 0 2.137.955 2.137 2.132a2.135 2.135 0 0 1-2.137 2.133 2.135 2.135 0 0 1-2.136-2.133c0-1.177.956-2.132 2.136-2.132zm-55.552 0c1.18 0 2.136.955 2.136 2.132a2.135 2.135 0 0 1-2.136 2.133 2.135 2.135 0 0 1-2.137-2.133c0-1.177.957-2.132 2.137-2.132zm129.622-18.481c1.18 0 2.137.954 2.137 2.132a2.135 2.135 0 0 1-2.137 2.133 2.135 2.135 0 0 1-2.137-2.133c0-1.178.957-2.132 2.137-2.132zm-92.587 0c1.18 0 2.136.954 2.136 2.132a2.135 2.135 0 0 1-2.136 2.133 2.135 2.135 0 0 1-2.137-2.133c0-1.178.957-2.132 2.137-2.132zm-111.105 0c1.18 0 2.137.954 2.137 2.132a2.135 2.135 0 0 1-2.137 2.133 2.135 2.135 0 0 1-2.137-2.133c0-1.178.957-2.132 2.137-2.132zm18.517 0c1.18 0 2.137.954 2.137 2.132a2.135 2.135 0 0 1-2.137 2.133 2.135 2.135 0 0 1-2.136-2.133c0-1.178.956-2.132 2.136-2.132zm74.07 0c1.18 0 2.137.954 2.137 2.132a2.135 2.135 0 0 1-2.137 2.133 2.135 2.135 0 0 1-2.136-2.133c0-1.178.956-2.132 2.136-2.132zm55.553 0c1.18 0 2.136.954 2.136 2.132a2.135 2.135 0 0 1-2.136 2.133 2.135 2.135 0 0 1-2.137-2.133c0-1.178.957-2.132 2.137-2.132zm18.517 0c1.18 0 2.137.954 2.137 2.132a2.135 2.135 0 0 1-2.137 2.133 2.135 2.135 0 0 1-2.136-2.133c0-1.178.956-2.132 2.136-2.132zm-92.587 0c1.18 0 2.136.954 2.136 2.132a2.135 2.135 0 0 1-2.136 2.133 2.135 2.135 0 0 1-2.137-2.133c0-1.178.957-2.132 2.137-2.132zm-92.587 0c1.18 0 2.136.954 2.136 2.132a2.135 2.135 0 0 1-2.136 2.133 2.135 2.135 0 0 1-2.137-2.133c0-1.178.957-2.132 2.137-2.132zm203.692 0c1.18 0 2.136.954 2.136 2.132a2.135 2.135 0 0 1-2.136 2.133 2.135 2.135 0 0 1-2.137-2.133c0-1.178.957-2.132 2.137-2.132zm-55.553 0c1.18 0 2.137.954 2.137 2.132a2.135 2.135 0 0 1-2.137 2.133 2.135 2.135 0 0 1-2.136-2.133c0-1.178.956-2.132 2.136-2.132zm-92.587 0c1.18 0 2.136.954 2.136 2.132a2.135 2.135 0 0 1-2.136 2.133 2.135 2.135 0 0 1-2.137-2.133c0-1.178.957-2.132 2.137-2.132zm18.517 0c1.18 0 2.137.954 2.137 2.132a2.135 2.135 0 0 1-2.137 2.133 2.135 2.135 0 0 1-2.136-2.133c0-1.178.956-2.132 2.136-2.132zm166.657 0c1.18 0 2.137.954 2.137 2.132a2.135 2.135 0 0 1-2.137 2.133 2.135 2.135 0 0 1-2.136-2.133c0-1.178.956-2.132 2.136-2.132zm-92.587-18.483c1.18 0 2.137.955 2.137 2.133a2.135 2.135 0 0 1-2.137 2.132 2.135 2.135 0 0 1-2.136-2.132c0-1.178.956-2.133 2.136-2.133zm-92.587 0c1.18 0 2.136.955 2.136 2.133a2.135 2.135 0 0 1-2.136 2.132 2.135 2.135 0 0 1-2.137-2.132c0-1.178.957-2.133 2.137-2.133zm166.657 0c1.18 0 2.137.955 2.137 2.133a2.135 2.135 0 0 1-2.137 2.132 2.135 2.135 0 0 1-2.137-2.132c0-1.178.957-2.133 2.137-2.133zm-55.552 0c1.18 0 2.136.955 2.136 2.133a2.135 2.135 0 0 1-2.136 2.132 2.135 2.135 0 0 1-2.137-2.132c0-1.178.957-2.133 2.137-2.133zm-166.657 0c1.18 0 2.136.955 2.136 2.133a2.135 2.135 0 0 1-2.136 2.132 2.135 2.135 0 0 1-2.137-2.132c0-1.178.957-2.133 2.137-2.133zm240.726 0c1.18 0 2.137.955 2.137 2.133a2.135 2.135 0 0 1-2.137 2.132 2.135 2.135 0 0 1-2.136-2.132c0-1.178.956-2.133 2.136-2.133zm-166.657 0c1.18 0 2.137.955 2.137 2.133a2.135 2.135 0 0 1-2.137 2.132 2.135 2.135 0 0 1-2.136-2.132c0-1.178.956-2.133 2.136-2.133zm55.553 0c1.18 0 2.136.955 2.136 2.133a2.135 2.135 0 0 1-2.136 2.132 2.135 2.135 0 0 1-2.137-2.132c0-1.178.957-2.133 2.137-2.133zm55.552 0c1.18 0 2.137.955 2.137 2.133a2.135 2.135 0 0 1-2.137 2.132 2.135 2.135 0 0 1-2.136-2.132c0-1.178.956-2.133 2.136-2.133zm-92.587 0c1.18 0 2.136.955 2.136 2.133a2.135 2.135 0 0 1-2.136 2.132 2.135 2.135 0 0 1-2.137-2.132c0-1.178.957-2.133 2.137-2.133zm18.517 0c1.18 0 2.137.955 2.137 2.133a2.135 2.135 0 0 1-2.137 2.132 2.135 2.135 0 0 1-2.136-2.132c0-1.178.956-2.133 2.136-2.133zm-92.587 0c1.18 0 2.137.955 2.137 2.133a2.135 2.135 0 0 1-2.137 2.132 2.135 2.135 0 0 1-2.137-2.132c0-1.178.957-2.133 2.137-2.133zm18.517 0c1.18 0 2.137.955 2.137 2.133a2.135 2.135 0 0 1-2.137 2.132 2.135 2.135 0 0 1-2.136-2.132c0-1.178.956-2.133 2.136-2.133zm166.658 0c1.18 0 2.136.955 2.136 2.133a2.135 2.135 0 0 1-2.136 2.132 2.135 2.135 0 0 1-2.137-2.132c0-1.178.957-2.133 2.137-2.133zm-111.105-18.48c1.18 0 2.136.954 2.136 2.132a2.135 2.135 0 0 1-2.136 2.132 2.135 2.135 0 0 1-2.137-2.132c0-1.178.957-2.133 2.137-2.133zm-92.587 0c1.18 0 2.136.954 2.136 2.132a2.135 2.135 0 0 1-2.136 2.132 2.135 2.135 0 0 1-2.137-2.132c0-1.178.957-2.133 2.137-2.133zm37.034 0c1.18 0 2.137.954 2.137 2.132a2.135 2.135 0 0 1-2.137 2.132 2.135 2.135 0 0 1-2.136-2.132c0-1.178.956-2.133 2.136-2.133zm129.623 0c1.18 0 2.136.954 2.136 2.132a2.135 2.135 0 0 1-2.136 2.132 2.135 2.135 0 0 1-2.137-2.132c0-1.178.957-2.133 2.137-2.133zm-18.518 0c1.18 0 2.137.954 2.137 2.132a2.135 2.135 0 0 1-2.137 2.132 2.135 2.135 0 0 1-2.136-2.132c0-1.178.956-2.133 2.136-2.133zm37.035 0c1.18 0 2.137.954 2.137 2.132a2.135 2.135 0 0 1-2.137 2.132 2.135 2.135 0 0 1-2.136-2.132c0-1.178.956-2.133 2.136-2.133zm-55.552 0c1.18 0 2.136.954 2.136 2.132a2.135 2.135 0 0 1-2.136 2.132 2.135 2.135 0 0 1-2.137-2.132c0-1.178.957-2.133 2.137-2.133zm-74.07 0c1.18 0 2.136.954 2.136 2.132a2.135 2.135 0 0 1-2.136 2.132 2.135 2.135 0 0 1-2.137-2.132c0-1.178.957-2.133 2.137-2.133zm18.517 0c1.18 0 2.137.954 2.137 2.132a2.135 2.135 0 0 1-2.137 2.132 2.135 2.135 0 0 1-2.136-2.132c0-1.178.956-2.133 2.136-2.133zm166.657 0c1.18 0 2.137.954 2.137 2.132a2.135 2.135 0 0 1-2.137 2.132 2.135 2.135 0 0 1-2.136-2.132c0-1.178.956-2.133 2.136-2.133zm-18.517 0c1.18 0 2.137.954 2.137 2.132a2.135 2.135 0 0 1-2.137 2.132 2.135 2.135 0 0 1-2.137-2.132c0-1.178.957-2.133 2.137-2.133zm-203.692 0c1.18 0 2.137.954 2.137 2.132a2.135 2.135 0 0 1-2.137 2.132 2.135 2.135 0 0 1-2.137-2.132c0-1.178.957-2.133 2.137-2.133zm185.175 0c1.18 0 2.136.954 2.136 2.132a2.135 2.135 0 0 1-2.136 2.132 2.135 2.135 0 0 1-2.137-2.132c0-1.178.957-2.133 2.137-2.133zm-92.588 0c1.18 0 2.137.954 2.137 2.132a2.135 2.135 0 0 1-2.137 2.132 2.135 2.135 0 0 1-2.136-2.132c0-1.178.956-2.133 2.136-2.133zm129.622-18.483c1.18 0 2.137.955 2.137 2.132a2.135 2.135 0 0 1-2.137 2.133 2.135 2.135 0 0 1-2.136-2.133c0-1.177.956-2.132 2.136-2.132zm-240.726 0c1.18 0 2.136.955 2.136 2.132a2.135 2.135 0 0 1-2.136 2.133 2.135 2.135 0 0 1-2.137-2.133c0-1.177.957-2.132 2.137-2.132zm37.034 0c1.18 0 2.137.955 2.137 2.132a2.135 2.135 0 0 1-2.137 2.133 2.135 2.135 0 0 1-2.136-2.133c0-1.177.956-2.132 2.136-2.132zm-18.517 0c1.18 0 2.137.955 2.137 2.132a2.135 2.135 0 0 1-2.137 2.133 2.135 2.135 0 0 1-2.137-2.133c0-1.177.957-2.132 2.137-2.132zm37.035 0c1.18 0 2.136.955 2.136 2.132a2.135 2.135 0 0 1-2.136 2.133 2.135 2.135 0 0 1-2.137-2.133c0-1.177.957-2.132 2.137-2.132zm37.035 0c1.18 0 2.136.955 2.136 2.132a2.135 2.135 0 0 1-2.136 2.133 2.135 2.135 0 0 1-2.137-2.133c0-1.177.957-2.132 2.137-2.132zm-18.518 0c1.18 0 2.137.955 2.137 2.132a2.135 2.135 0 0 1-2.137 2.133 2.135 2.135 0 0 1-2.136-2.133c0-1.177.956-2.132 2.136-2.132zm37.035 0c1.18 0 2.137.955 2.137 2.132a2.135 2.135 0 0 1-2.137 2.133 2.135 2.135 0 0 1-2.136-2.133c0-1.177.956-2.132 2.136-2.132zm37.035 0c1.18 0 2.137.955 2.137 2.132a2.135 2.135 0 0 1-2.137 2.133 2.135 2.135 0 0 1-2.136-2.133c0-1.177.956-2.132 2.136-2.132zm-18.517 0c1.18 0 2.136.955 2.136 2.132a2.135 2.135 0 0 1-2.136 2.133 2.135 2.135 0 0 1-2.137-2.133c0-1.177.957-2.132 2.137-2.132zm37.035 0c1.18 0 2.136.955 2.136 2.132a2.135 2.135 0 0 1-2.136 2.133 2.135 2.135 0 0 1-2.137-2.133c0-1.177.957-2.132 2.137-2.132zm37.035 0c1.18 0 2.136.955 2.136 2.132a2.135 2.135 0 0 1-2.136 2.133 2.135 2.135 0 0 1-2.137-2.133c0-1.177.957-2.132 2.137-2.132zm-18.518 0c1.18 0 2.137.955 2.137 2.132a2.135 2.135 0 0 1-2.137 2.133 2.135 2.135 0 0 1-2.136-2.133c0-1.177.956-2.132 2.136-2.132zm37.035 0c1.18 0 2.137.955 2.137 2.132a2.135 2.135 0 0 1-2.137 2.133 2.135 2.135 0 0 1-2.137-2.133c0-1.177.957-2.132 2.137-2.132zm-148.14-18.481c1.18 0 2.137.954 2.137 2.132a2.135 2.135 0 0 1-2.137 2.133 2.135 2.135 0 0 1-2.136-2.133c0-1.178.956-2.132 2.136-2.132zm18.518 0c1.18 0 2.136.954 2.136 2.132a2.135 2.135 0 0 1-2.136 2.133 2.135 2.135 0 0 1-2.137-2.133c0-1.178.957-2.132 2.137-2.132zm18.517 0c1.18 0 2.137.954 2.137 2.132a2.135 2.135 0 0 1-2.137 2.133 2.135 2.135 0 0 1-2.136-2.133c0-1.178.956-2.132 2.136-2.132zm18.518 0c1.18 0 2.136.954 2.136 2.132a2.135 2.135 0 0 1-2.136 2.133 2.135 2.135 0 0 1-2.137-2.133c0-1.178.957-2.132 2.137-2.132zm-129.622 0c1.18 0 2.136.954 2.136 2.132a2.135 2.135 0 0 1-2.136 2.133 2.135 2.135 0 0 1-2.137-2.133c0-1.178.957-2.132 2.137-2.132zm18.517 0c1.18 0 2.137.954 2.137 2.132a2.135 2.135 0 0 1-2.137 2.133 2.135 2.135 0 0 1-2.137-2.133c0-1.178.957-2.132 2.137-2.132zm18.517 0c1.18 0 2.137.954 2.137 2.132a2.135 2.135 0 0 1-2.137 2.133 2.135 2.135 0 0 1-2.136-2.133c0-1.178.956-2.132 2.136-2.132zm18.518 0c1.18 0 2.136.954 2.136 2.132a2.135 2.135 0 0 1-2.136 2.133 2.135 2.135 0 0 1-2.137-2.133c0-1.178.957-2.132 2.137-2.132zm166.657 0c1.18 0 2.137.954 2.137 2.132a2.135 2.135 0 0 1-2.137 2.133 2.135 2.135 0 0 1-2.137-2.133c0-1.178.957-2.132 2.137-2.132zm18.517 0c1.18 0 2.137.954 2.137 2.132a2.135 2.135 0 0 1-2.137 2.133 2.135 2.135 0 0 1-2.136-2.133c0-1.178.956-2.132 2.136-2.132zm-92.587 0c1.18 0 2.137.954 2.137 2.132a2.135 2.135 0 0 1-2.137 2.133 2.135 2.135 0 0 1-2.136-2.133c0-1.178.956-2.132 2.136-2.132zm18.518 0c1.18 0 2.136.954 2.136 2.132a2.135 2.135 0 0 1-2.136 2.133 2.135 2.135 0 0 1-2.137-2.133c0-1.178.957-2.132 2.137-2.132zm18.517 0c1.18 0 2.137.954 2.137 2.132a2.135 2.135 0 0 1-2.137 2.133 2.135 2.135 0 0 1-2.136-2.133c0-1.178.956-2.132 2.136-2.132zm18.518 0c1.18 0 2.136.954 2.136 2.132a2.135 2.135 0 0 1-2.136 2.133 2.135 2.135 0 0 1-2.137-2.133c0-1.178.957-2.132 2.137-2.132zm-92.588-18.483c1.18 0 2.137.955 2.137 2.133a2.135 2.135 0 0 1-2.137 2.132 2.135 2.135 0 0 1-2.136-2.132c0-1.178.956-2.133 2.136-2.133zm92.588 0c1.18 0 2.136.955 2.136 2.133a2.135 2.135 0 0 1-2.136 2.132 2.135 2.135 0 0 1-2.137-2.132c0-1.178.957-2.133 2.137-2.133zm37.034 0c1.18 0 2.137.955 2.137 2.133a2.135 2.135 0 0 1-2.137 2.132 2.135 2.135 0 0 1-2.136-2.132c0-1.178.956-2.133 2.136-2.133zm-111.104 0c1.18 0 2.136.955 2.136 2.133a2.135 2.135 0 0 1-2.136 2.132 2.135 2.135 0 0 1-2.137-2.132c0-1.178.957-2.133 2.137-2.133zm18.517 0c1.18 0 2.137.955 2.137 2.133a2.135 2.135 0 0 1-2.137 2.132 2.135 2.135 0 0 1-2.136-2.132c0-1.178.956-2.133 2.136-2.133zm-92.587 0c1.18 0 2.136.955 2.136 2.133a2.135 2.135 0 0 1-2.136 2.132 2.135 2.135 0 0 1-2.137-2.132c0-1.178.957-2.133 2.137-2.133zm18.517 0c1.18 0 2.137.955 2.137 2.133a2.135 2.135 0 0 1-2.137 2.132 2.135 2.135 0 0 1-2.136-2.132c0-1.178.956-2.133 2.136-2.133zm18.518 0c1.18 0 2.136.955 2.136 2.133a2.135 2.135 0 0 1-2.136 2.132 2.135 2.135 0 0 1-2.137-2.132c0-1.178.957-2.133 2.137-2.133zm92.587 0c1.18 0 2.137.955 2.137 2.133a2.135 2.135 0 0 1-2.137 2.132 2.135 2.135 0 0 1-2.136-2.132c0-1.178.956-2.133 2.136-2.133zm37.035 0c1.18 0 2.137.955 2.137 2.133a2.135 2.135 0 0 1-2.137 2.132 2.135 2.135 0 0 1-2.137-2.132c0-1.178.957-2.133 2.137-2.133zm-203.692 0c1.18 0 2.137.955 2.137 2.133a2.135 2.135 0 0 1-2.137 2.132 2.135 2.135 0 0 1-2.137-2.132c0-1.178.957-2.133 2.137-2.133zm148.14 0c1.18 0 2.136.955 2.136 2.133a2.135 2.135 0 0 1-2.136 2.132 2.135 2.135 0 0 1-2.137-2.132c0-1.178.957-2.133 2.137-2.133zm-129.623 0c1.18 0 2.137.955 2.137 2.133a2.135 2.135 0 0 1-2.137 2.132 2.135 2.135 0 0 1-2.136-2.132c0-1.178.956-2.133 2.136-2.133zm-37.034 0c1.18 0 2.136.955 2.136 2.133a2.135 2.135 0 0 1-2.136 2.132 2.135 2.135 0 0 1-2.137-2.132c0-1.178.957-2.133 2.137-2.133zm74.07-18.482c1.18 0 2.136.955 2.136 2.133a2.135 2.135 0 0 1-2.137 2.132 2.135 2.135 0 0 1-2.136-2.132c0-1.178.956-2.133 2.136-2.133zm55.552 0c1.18 0 2.136.955 2.136 2.133a2.135 2.135 0 0 1-2.136 2.132 2.135 2.135 0 0 1-2.137-2.132c0-1.178.957-2.133 2.137-2.133zm-129.622 0c1.18 0 2.136.955 2.136 2.133a2.135 2.135 0 0 1-2.136 2.132 2.135 2.135 0 0 1-2.137-2.132c0-1.178.957-2.133 2.137-2.133zm18.517 0c1.18 0 2.137.955 2.137 2.133a2.135 2.135 0 0 1-2.137 2.132 2.135 2.135 0 0 1-2.137-2.132c0-1.178.957-2.133 2.137-2.133zm18.517 0c1.18 0 2.137.955 2.137 2.133a2.135 2.135 0 0 1-2.137 2.132 2.135 2.135 0 0 1-2.136-2.132c0-1.178.956-2.133 2.136-2.133zm18.518 0c1.18 0 2.136.955 2.136 2.133a2.135 2.135 0 0 1-2.136 2.132 2.135 2.135 0 0 1-2.137-2.132c0-1.178.957-2.133 2.137-2.133zm166.657 0c1.18 0 2.137.955 2.137 2.133a2.135 2.135 0 0 1-2.137 2.132 2.135 2.135 0 0 1-2.137-2.132c0-1.178.957-2.133 2.137-2.133zm18.517 0c1.18 0 2.137.955 2.137 2.133a2.135 2.135 0 0 1-2.137 2.132 2.135 2.135 0 0 1-2.136-2.132c0-1.178.956-2.133 2.136-2.133zm-92.587 0c1.18 0 2.137.955 2.137 2.133a2.135 2.135 0 0 1-2.137 2.132 2.135 2.135 0 0 1-2.136-2.132c0-1.178.956-2.133 2.136-2.133zm18.518 0c1.18 0 2.136.955 2.136 2.133a2.135 2.135 0 0 1-2.136 2.132 2.135 2.135 0 0 1-2.137-2.132c0-1.178.957-2.133 2.137-2.133zm18.517 0c1.18 0 2.137.955 2.137 2.133a2.135 2.135 0 0 1-2.137 2.132 2.135 2.135 0 0 1-2.136-2.132c0-1.178.956-2.133 2.136-2.133zm18.518 0c1.18 0 2.136.955 2.136 2.133a2.135 2.135 0 0 1-2.136 2.132 2.135 2.135 0 0 1-2.137-2.132c0-1.178.957-2.133 2.137-2.133zm-111.105 0c1.18 0 2.136.955 2.136 2.133a2.135 2.135 0 0 1-2.136 2.132 2.135 2.135 0 0 1-2.137-2.132c0-1.178.957-2.133 2.137-2.133zm18.517 0c1.18 0 2.137.955 2.137 2.133a2.135 2.135 0 0 1-2.137 2.132 2.135 2.135 0 0 1-2.136-2.132c0-1.178.956-2.133 2.136-2.133zM197.137 176c1.18 0 2.136.955 2.136 2.133a2.135 2.135 0 0 1-2.136 2.132 2.135 2.135 0 0 1-2.137-2.132c0-1.178.957-2.133 2.137-2.133zm18.517 0c1.18 0 2.137.955 2.137 2.133a2.135 2.135 0 0 1-2.137 2.132 2.135 2.135 0 0 1-2.137-2.132c0-1.178.957-2.133 2.137-2.133zm18.517 0c1.18 0 2.137.955 2.137 2.133a2.135 2.135 0 0 1-2.137 2.132 2.135 2.135 0 0 1-2.136-2.132c0-1.178.956-2.133 2.136-2.133zm18.518 0c1.18 0 2.136.955 2.136 2.133a2.135 2.135 0 0 1-2.136 2.132 2.135 2.135 0 0 1-2.137-2.132c0-1.178.957-2.133 2.137-2.133zm18.517 0c1.18 0 2.137.955 2.137 2.133a2.135 2.135 0 0 1-2.137 2.132 2.135 2.135 0 0 1-2.136-2.132c0-1.178.956-2.133 2.136-2.133zm18.518 0c1.18 0 2.136.955 2.136 2.133a2.135 2.135 0 0 1-2.136 2.132 2.135 2.135 0 0 1-2.137-2.132c0-1.178.957-2.133 2.137-2.133zm18.517 0c1.18 0 2.137.955 2.137 2.133a2.135 2.135 0 0 1-2.137 2.132 2.135 2.135 0 0 1-2.136-2.132c0-1.178.956-2.133 2.136-2.133zm18.518 0c1.18 0 2.136.955 2.136 2.133a2.135 2.135 0 0 1-2.136 2.132 2.135 2.135 0 0 1-2.137-2.132c0-1.178.957-2.133 2.137-2.133zm18.517 0c1.18 0 2.137.955 2.137 2.133a2.135 2.135 0 0 1-2.137 2.132 2.135 2.135 0 0 1-2.136-2.132c0-1.178.956-2.133 2.136-2.133zm18.518 0c1.18 0 2.136.955 2.136 2.133a2.135 2.135 0 0 1-2.136 2.132 2.135 2.135 0 0 1-2.137-2.132c0-1.178.957-2.133 2.137-2.133zm18.517 0c1.18 0 2.137.955 2.137 2.133a2.135 2.135 0 0 1-2.137 2.132 2.135 2.135 0 0 1-2.136-2.132c0-1.178.956-2.133 2.136-2.133zm18.518 0c1.18 0 2.136.955 2.136 2.133a2.135 2.135 0 0 1-2.136 2.132 2.135 2.135 0 0 1-2.137-2.132c0-1.178.957-2.133 2.137-2.133zm18.517 0c1.18 0 2.137.955 2.137 2.133a2.135 2.135 0 0 1-2.137 2.132 2.135 2.135 0 0 1-2.137-2.132c0-1.178.957-2.133 2.137-2.133zm18.517 0c1.18 0 2.137.955 2.137 2.133a2.135 2.135 0 0 1-2.137 2.132 2.135 2.135 0 0 1-2.136-2.132c0-1.178.956-2.133 2.136-2.133z" transform="translate(-195 -176)" fill="url(#a)" fill-rule="evenodd"/>
</svg>
