<?xml version="1.0" encoding="UTF-8"?>
<svg width="24px" height="24px" viewBox="0 0 24 24" version="1.1" xmlns="http://www.w3.org/2000/svg" xmlns:xlink="http://www.w3.org/1999/xlink">
    <title>FB</title>
    <g id="Page-1" stroke="none" stroke-width="1" fill="none" fill-rule="evenodd">
        <g id="Contact" transform="translate(-1168.000000, -3128.000000)" fill="#B0B2B8" fill-rule="nonzero">
            <g id="Group-8" transform="translate(0.000000, 2567.000000)">
                <g id="Group-10" transform="translate(982.000000, 561.000000)">
                    <g id="socials" transform="translate(88.000000, 0.000000)">
                        <path d="M117.5,0 L102.5,0 C100.014154,0 98,2.01415385 98,4.5 L98,19.5 C98,21.9858462 100.014154,24 102.5,24 L117.5,24 C119.985846,24 122,21.9858462 122,19.5 L122,4.5 C122,2.01415385 119.985846,0 117.5,0 Z M116.889846,12.9249231 L114.644,12.9249231 L114.644,21.2363077 L110.893538,21.2363077 L110.893538,12.9249231 L109.438769,12.9249231 L109.438769,10.1252308 L110.893538,10.1252308 L110.893538,8.34184615 C110.894462,6.00369231 111.865538,4.61538462 114.620923,4.61538462 L117.413231,4.61538462 L117.413231,7.40492308 L115.791385,7.40492308 C114.718769,7.40492308 114.648615,7.80461538 114.648615,8.55230769 L114.644,10.1243077 L117.195385,10.1243077 L116.889846,12.9249231 Z" id="FB"></path>
                    </g>
                </g>
            </g>
        </g>
    </g>
</svg>