<?xml version="1.0" encoding="UTF-8"?>
<svg width="300px" height="246px" viewBox="0 0 300 246" version="1.1" xmlns="http://www.w3.org/2000/svg" xmlns:xlink="http://www.w3.org/1999/xlink">
    <title>gray-dot</title>
    <g id="Welcome" stroke="none" stroke-width="1" fill="none" fill-rule="evenodd" opacity="0.3">
        <g id="About---Web" transform="translate(-729.000000, -741.000000)" fill="#A9AFB9">
            <g id="our-mission" transform="translate(247.000000, 620.000000)">
                <g id="Group-4" transform="translate(482.500000, 52.000000)">
                    <g id="gray-dot" transform="translate(0.000000, 69.500020)">
                        <ellipse id="Oval" transform="translate(185.531466, 224.345959) rotate(-360.000000) translate(-185.531466, -224.345959) " cx="185.531466" cy="224.345959" rx="2.13250741" ry="2.13657081"></ellipse>
                        <ellipse id="Oval" transform="translate(185.531466, 242.863409) rotate(-360.000000) translate(-185.531466, -242.863409) " cx="185.531466" cy="242.863409" rx="2.13250741" ry="2.13657081"></ellipse>
                        <ellipse id="Oval" transform="translate(204.013700, 224.345959) rotate(-360.000000) translate(-204.013700, -224.345959) " cx="204.0137" cy="224.345959" rx="2.13250741" ry="2.13657081"></ellipse>
                        <ellipse id="Oval" transform="translate(204.013700, 242.863409) rotate(-360.000000) translate(-204.013700, -242.863409) " cx="204.0137" cy="242.863409" rx="2.13250741" ry="2.13657081"></ellipse>
                        <ellipse id="Oval" transform="translate(222.494914, 224.345959) rotate(-360.000000) translate(-222.494914, -224.345959) " cx="222.494914" cy="224.345959" rx="2.13250741" ry="2.13657081"></ellipse>
                        <ellipse id="Oval" transform="translate(222.494914, 242.863409) rotate(-360.000000) translate(-222.494914, -242.863409) " cx="222.494914" cy="242.863409" rx="2.13250741" ry="2.13657081"></ellipse>
                        <ellipse id="Oval" transform="translate(240.977148, 224.345959) rotate(-360.000000) translate(-240.977148, -224.345959) " cx="240.977148" cy="224.345959" rx="2.13250741" ry="2.13657081"></ellipse>
                        <ellipse id="Oval" transform="translate(240.977148, 242.863409) rotate(-360.000000) translate(-240.977148, -242.863409) " cx="240.977148" cy="242.863409" rx="2.13250741" ry="2.13657081"></ellipse>
                        <ellipse id="Oval" transform="translate(259.458363, 224.345959) rotate(-360.000000) translate(-259.458363, -224.345959) " cx="259.458363" cy="224.345959" rx="2.13250741" ry="2.13657081"></ellipse>
                        <ellipse id="Oval" transform="translate(259.458363, 242.863409) rotate(-360.000000) translate(-259.458363, -242.863409) " cx="259.458363" cy="242.863409" rx="2.13250741" ry="2.13657081"></ellipse>
                        <ellipse id="Oval" transform="translate(277.940596, 224.345959) rotate(-360.000000) translate(-277.940596, -224.345959) " cx="277.940596" cy="224.345959" rx="2.13250741" ry="2.13657081"></ellipse>
                        <ellipse id="Oval" transform="translate(277.940596, 242.863409) rotate(-360.000000) translate(-277.940596, -242.863409) " cx="277.940596" cy="242.863409" rx="2.13250741" ry="2.13657081"></ellipse>
                        <ellipse id="Oval" transform="translate(296.421811, 224.345959) rotate(-360.000000) translate(-296.421811, -224.345959) " cx="296.421811" cy="224.345959" rx="2.13250741" ry="2.13657081"></ellipse>
                        <ellipse id="Oval" transform="translate(296.421811, 242.863409) rotate(-360.000000) translate(-296.421811, -242.863409) " cx="296.421811" cy="242.863409" rx="2.13250741" ry="2.13657081"></ellipse>
                        <ellipse id="Oval" transform="translate(2.132487, 2.136551) rotate(-360.000000) translate(-2.132487, -2.136551) " cx="2.13248703" cy="2.1365506" rx="2.13248703" ry="2.1365506"></ellipse>
                        <ellipse id="Oval" transform="translate(2.132487, 20.654001) rotate(-360.000000) translate(-2.132487, -20.654001) " cx="2.13248703" cy="20.6540015" rx="2.13248703" ry="2.1365504"></ellipse>
                        <ellipse id="Oval" transform="translate(2.132487, 39.171452) rotate(-360.000000) translate(-2.132487, -39.171452) " cx="2.13248703" cy="39.1714521" rx="2.13248703" ry="2.1365504"></ellipse>
                        <ellipse id="Oval" transform="translate(2.132487, 57.688903) rotate(-360.000000) translate(-2.132487, -57.688903) " cx="2.13248703" cy="57.6889027" rx="2.13248703" ry="2.1365504"></ellipse>
                        <ellipse id="Oval" transform="translate(2.132487, 76.206353) rotate(-360.000000) translate(-2.132487, -76.206353) " cx="2.13248703" cy="76.2063534" rx="2.13248703" ry="2.1365504"></ellipse>
                        <ellipse id="Oval" transform="translate(2.132487, 94.723804) rotate(-360.000000) translate(-2.132487, -94.723804) " cx="2.13248703" cy="94.723804" rx="2.13248703" ry="2.1365504"></ellipse>
                        <ellipse id="Oval" transform="translate(2.132487, 113.241255) rotate(-360.000000) translate(-2.132487, -113.241255) " cx="2.13248703" cy="113.241255" rx="2.13248703" ry="2.1365504"></ellipse>
                        <ellipse id="Oval" transform="translate(2.132487, 131.758705) rotate(-360.000000) translate(-2.132487, -131.758705) " cx="2.13248703" cy="131.758705" rx="2.13248703" ry="2.1365504"></ellipse>
                        <ellipse id="Oval" transform="translate(2.132487, 150.276156) rotate(-360.000000) translate(-2.132487, -150.276156) " cx="2.13248703" cy="150.276156" rx="2.13248703" ry="2.1365504"></ellipse>
                        <ellipse id="Oval" transform="translate(2.132487, 168.793607) rotate(-360.000000) translate(-2.132487, -168.793607) " cx="2.13248703" cy="168.793607" rx="2.13248703" ry="2.1365504"></ellipse>
                        <ellipse id="Oval" transform="translate(2.132487, 187.311057) rotate(-360.000000) translate(-2.132487, -187.311057) " cx="2.13248703" cy="187.311057" rx="2.13248703" ry="2.1365504"></ellipse>
                        <ellipse id="Oval" transform="translate(2.132487, 205.828508) rotate(-360.000000) translate(-2.132487, -205.828508) " cx="2.13248703" cy="205.828508" rx="2.13248703" ry="2.1365504"></ellipse>
                        <ellipse id="Oval" transform="translate(2.132487, 224.335750) rotate(-360.000000) translate(-2.132487, -224.335750) " cx="2.13248703" cy="224.33575" rx="2.13248703" ry="2.1365504"></ellipse>
                        <ellipse id="Oval" transform="translate(2.132487, 242.853201) rotate(-360.000000) translate(-2.132487, -242.853201) " cx="2.13248703" cy="242.853201" rx="2.13248703" ry="2.1365504"></ellipse>
                        <ellipse id="Oval" transform="translate(20.614721, 2.136551) rotate(-360.000000) translate(-20.614721, -2.136551) " cx="20.6147206" cy="2.1365506" rx="2.13248703" ry="2.1365506"></ellipse>
                        <ellipse id="Oval" transform="translate(20.614721, 20.654001) rotate(-360.000000) translate(-20.614721, -20.654001) " cx="20.6147206" cy="20.6540015" rx="2.13248703" ry="2.1365504"></ellipse>
                        <ellipse id="Oval" transform="translate(20.614721, 39.171452) rotate(-360.000000) translate(-20.614721, -39.171452) " cx="20.6147206" cy="39.1714521" rx="2.13248703" ry="2.1365504"></ellipse>
                        <ellipse id="Oval" transform="translate(20.614721, 57.688903) rotate(-360.000000) translate(-20.614721, -57.688903) " cx="20.6147206" cy="57.6889027" rx="2.13248703" ry="2.1365504"></ellipse>
                        <ellipse id="Oval" transform="translate(20.614721, 76.206353) rotate(-360.000000) translate(-20.614721, -76.206353) " cx="20.6147206" cy="76.2063534" rx="2.13248703" ry="2.1365504"></ellipse>
                        <ellipse id="Oval" transform="translate(20.614721, 94.723804) rotate(-360.000000) translate(-20.614721, -94.723804) " cx="20.6147206" cy="94.723804" rx="2.13248703" ry="2.1365504"></ellipse>
                        <ellipse id="Oval" transform="translate(20.614721, 113.241255) rotate(-360.000000) translate(-20.614721, -113.241255) " cx="20.6147206" cy="113.241255" rx="2.13248703" ry="2.1365504"></ellipse>
                        <ellipse id="Oval" transform="translate(20.614721, 131.758705) rotate(-360.000000) translate(-20.614721, -131.758705) " cx="20.6147206" cy="131.758705" rx="2.13248703" ry="2.1365504"></ellipse>
                        <ellipse id="Oval" transform="translate(20.614721, 150.276156) rotate(-360.000000) translate(-20.614721, -150.276156) " cx="20.6147206" cy="150.276156" rx="2.13248703" ry="2.1365504"></ellipse>
                        <ellipse id="Oval" transform="translate(20.614721, 168.793607) rotate(-360.000000) translate(-20.614721, -168.793607) " cx="20.6147206" cy="168.793607" rx="2.13248703" ry="2.1365504"></ellipse>
                        <ellipse id="Oval" transform="translate(20.614721, 187.311057) rotate(-360.000000) translate(-20.614721, -187.311057) " cx="20.6147206" cy="187.311057" rx="2.13248703" ry="2.1365504"></ellipse>
                        <ellipse id="Oval" transform="translate(20.614721, 205.828508) rotate(-360.000000) translate(-20.614721, -205.828508) " cx="20.6147206" cy="205.828508" rx="2.13248703" ry="2.1365504"></ellipse>
                        <ellipse id="Oval" transform="translate(20.614721, 224.335750) rotate(-360.000000) translate(-20.614721, -224.335750) " cx="20.6147206" cy="224.33575" rx="2.13248703" ry="2.1365504"></ellipse>
                        <ellipse id="Oval" transform="translate(20.614721, 242.853201) rotate(-360.000000) translate(-20.614721, -242.853201) " cx="20.6147206" cy="242.853201" rx="2.13248703" ry="2.1365504"></ellipse>
                        <ellipse id="Oval" transform="translate(39.096954, 224.335750) rotate(-360.000000) translate(-39.096954, -224.335750) " cx="39.0969541" cy="224.33575" rx="2.13248703" ry="2.1365504"></ellipse>
                        <ellipse id="Oval" transform="translate(39.096954, 242.853201) rotate(-360.000000) translate(-39.096954, -242.853201) " cx="39.0969541" cy="242.853201" rx="2.13248703" ry="2.1365504"></ellipse>
                        <ellipse id="Oval" transform="translate(57.579188, 224.335750) rotate(-360.000000) translate(-57.579188, -224.335750) " cx="57.5791876" cy="224.33575" rx="2.13248703" ry="2.1365504"></ellipse>
                        <ellipse id="Oval" transform="translate(57.579188, 242.853201) rotate(-360.000000) translate(-57.579188, -242.853201) " cx="57.5791876" cy="242.853201" rx="2.13248703" ry="2.1365504"></ellipse>
                        <ellipse id="Oval" transform="translate(76.061421, 224.335750) rotate(-360.000000) translate(-76.061421, -224.335750) " cx="76.0614212" cy="224.33575" rx="2.13248703" ry="2.1365504"></ellipse>
                        <ellipse id="Oval" transform="translate(76.061421, 242.853201) rotate(-360.000000) translate(-76.061421, -242.853201) " cx="76.0614212" cy="242.853201" rx="2.13248703" ry="2.1365504"></ellipse>
                        <ellipse id="Oval" transform="translate(94.543655, 224.335750) rotate(-360.000000) translate(-94.543655, -224.335750) " cx="94.5436547" cy="224.33575" rx="2.13248703" ry="2.1365504"></ellipse>
                        <ellipse id="Oval" transform="translate(94.543655, 242.853201) rotate(-360.000000) translate(-94.543655, -242.853201) " cx="94.5436547" cy="242.853201" rx="2.13248703" ry="2.1365504"></ellipse>
                        <ellipse id="Oval" transform="translate(113.025888, 224.335750) rotate(-360.000000) translate(-113.025888, -224.335750) " cx="113.025888" cy="224.33575" rx="2.13248703" ry="2.1365504"></ellipse>
                        <ellipse id="Oval" transform="translate(113.025888, 242.853201) rotate(-360.000000) translate(-113.025888, -242.853201) " cx="113.025888" cy="242.853201" rx="2.13248703" ry="2.1365504"></ellipse>
                        <ellipse id="Oval" transform="translate(131.508122, 224.335750) rotate(-360.000000) translate(-131.508122, -224.335750) " cx="131.508122" cy="224.33575" rx="2.13248703" ry="2.1365504"></ellipse>
                        <ellipse id="Oval" transform="translate(131.508122, 242.853201) rotate(-360.000000) translate(-131.508122, -242.853201) " cx="131.508122" cy="242.853201" rx="2.13248703" ry="2.1365504"></ellipse>
                        <ellipse id="Oval" transform="translate(149.990355, 224.335750) rotate(-360.000000) translate(-149.990355, -224.335750) " cx="149.990355" cy="224.33575" rx="2.13248703" ry="2.1365504"></ellipse>
                        <ellipse id="Oval" transform="translate(149.990355, 242.853201) rotate(-360.000000) translate(-149.990355, -242.853201) " cx="149.990355" cy="242.853201" rx="2.13248703" ry="2.1365504"></ellipse>
                        <ellipse id="Oval" transform="translate(168.469532, 224.335750) rotate(-360.000000) translate(-168.469532, -224.335750) " cx="168.469532" cy="224.33575" rx="2.13248703" ry="2.1365504"></ellipse>
                        <ellipse id="Oval" transform="translate(168.469532, 242.853201) rotate(-360.000000) translate(-168.469532, -242.853201) " cx="168.469532" cy="242.853201" rx="2.13248703" ry="2.1365504"></ellipse>
                    </g>
                </g>
            </g>
        </g>
    </g>
</svg>