<?xml version="1.0" encoding="UTF-8"?>
<svg width="24px" height="24px" viewBox="0 0 24 24" version="1.1" xmlns="http://www.w3.org/2000/svg" xmlns:xlink="http://www.w3.org/1999/xlink">
    <title>In</title>
    <g id="Page-1" stroke="none" stroke-width="1" fill="none" fill-rule="evenodd">
        <g id="Contact" transform="translate(-1217.000000, -3128.000000)" fill="#B0B2B8" fill-rule="nonzero">
            <g id="Group-8" transform="translate(0.000000, 2567.000000)">
                <g id="Group-10" transform="translate(982.000000, 561.000000)">
                    <g id="socials" transform="translate(88.000000, 0.000000)">
                        <path d="M167.484375,0 L150.515625,0 C148.577271,0 147,1.57727053 147,3.515625 L147,20.484375 C147,22.4227295 148.577271,24 150.515625,24 L167.484375,24 C169.422729,24 171,22.4227295 171,20.484375 L171,3.515625 C171,1.57727053 169.422729,0 167.484375,0 Z M155.484375,19.03125 L152.671875,19.03125 L152.671875,9.1875 L155.484375,9.1875 L155.484375,19.03125 Z M155.484375,7.78125 L152.671875,7.78125 L152.671875,4.96875 L155.484375,4.96875 L155.484375,7.78125 Z M165.328125,19.03125 L162.515625,19.03125 L162.515625,13.40625 C162.515625,12.6309815 161.884644,12 161.109375,12 C160.334106,12 159.703125,12.6309815 159.703125,13.40625 L159.703125,19.03125 L156.890625,19.03125 L156.890625,9.1875 L159.703125,9.1875 L159.703125,9.71759034 C160.439941,9.48852539 160.918579,9.1875 161.8125,9.1875 C163.71991,9.18951417 165.328125,10.9006348 165.328125,12.9228516 L165.328125,19.03125 Z" id="In"></path>
                    </g>
                </g>
            </g>
        </g>
    </g>
</svg>