<?xml version="1.0" encoding="UTF-8"?>
<svg width="24px" height="24px" viewBox="0 0 24 24" version="1.1" xmlns="http://www.w3.org/2000/svg" xmlns:xlink="http://www.w3.org/1999/xlink">
    <title>Insta</title>
    <g id="Page-1" stroke="none" stroke-width="1" fill="none" fill-rule="evenodd">
        <g id="Contact" transform="translate(-1266.000000, -3128.000000)" fill="#B0B2B8" fill-rule="nonzero">
            <g id="Group-8" transform="translate(0.000000, 2567.000000)">
                <g id="Group-10" transform="translate(982.000000, 561.000000)">
                    <g id="socials" transform="translate(88.000000, 0.000000)">
                        <path d="M208,7.125 C205.285937,7.125 203.078125,9.3328125 203.078125,12.046875 C203.078125,14.7609375 205.285937,16.96875 208,16.96875 C210.714062,16.96875 212.921875,14.7609375 212.921875,12.046875 C212.921875,9.3328125 210.714062,7.125 208,7.125 Z M208,7.125 C205.285937,7.125 203.078125,9.3328125 203.078125,12.046875 C203.078125,14.7609375 205.285937,16.96875 208,16.96875 C210.714062,16.96875 212.921875,14.7609375 212.921875,12.046875 C212.921875,9.3328125 210.714062,7.125 208,7.125 Z M216.484375,0 L199.515625,0 C197.575,0 196,1.575 196,3.515625 L196,20.484375 C196,22.425 197.575,24 199.515625,24 L216.484375,24 C218.425,24 220,22.425 220,20.484375 L220,3.515625 C220,1.575 218.425,0 216.484375,0 Z M208,18.375 C204.512547,18.375 201.671875,15.5343281 201.671875,12.046875 C201.671875,8.55932813 204.512547,5.71875 208,5.71875 C211.487453,5.71875 214.328125,8.55932813 214.328125,12.046875 C214.328125,15.5343281 211.487453,18.375 208,18.375 Z M215.734375,5.71875 C214.960938,5.71875 214.328125,5.0859375 214.328125,4.3125 C214.328125,3.5390625 214.960938,2.90625 215.734375,2.90625 C216.507812,2.90625 217.140625,3.5390625 217.140625,4.3125 C217.140625,5.0859375 216.507812,5.71875 215.734375,5.71875 Z M208,7.125 C205.285937,7.125 203.078125,9.3328125 203.078125,12.046875 C203.078125,14.7609375 205.285937,16.96875 208,16.96875 C210.714062,16.96875 212.921875,14.7609375 212.921875,12.046875 C212.921875,9.3328125 210.714062,7.125 208,7.125 Z M208,7.125 C205.285937,7.125 203.078125,9.3328125 203.078125,12.046875 C203.078125,14.7609375 205.285937,16.96875 208,16.96875 C210.714062,16.96875 212.921875,14.7609375 212.921875,12.046875 C212.921875,9.3328125 210.714062,7.125 208,7.125 Z M208,7.125 C205.285937,7.125 203.078125,9.3328125 203.078125,12.046875 C203.078125,14.7609375 205.285937,16.96875 208,16.96875 C210.714062,16.96875 212.921875,14.7609375 212.921875,12.046875 C212.921875,9.3328125 210.714062,7.125 208,7.125 Z" id="Insta"></path>
                    </g>
                </g>
            </g>
        </g>
    </g>
</svg>