<?xml version="1.0" encoding="UTF-8"?>
<svg width="140px" height="24px" viewBox="0 0 140 24" version="1.1" xmlns="http://www.w3.org/2000/svg" xmlns:xlink="http://www.w3.org/1999/xlink">
    <title>WH_Logo</title>
    <defs>
        <linearGradient x1="28.3929885%" y1="100%" x2="71.6070115%" y2="0%" id="linearGradient-1">
            <stop stop-color="#72BE44" offset="0%"></stop>
            <stop stop-color="#00A0FD" offset="100%"></stop>
        </linearGradient>
    </defs>
    <g id="Page-1" stroke="none" stroke-width="1" fill="none" fill-rule="evenodd">
        <g id="Contact" transform="translate(-150.000000, -28.000000)">
            <g id="WH_Logo" transform="translate(150.000000, 28.000000)">
                <path d="M49.28304,15.08196 C49.28304,17.95116 47.29824,20.03196 44.56104,20.03196 C41.87784,20.03196 39.77424,17.82996 39.77424,15.01596 L39.77424,14.95116 C39.77424,12.08196 41.76024,9.99996 44.49624,9.99996 C47.18064,9.99996 49.28304,12.20316 49.28304,15.01596 L49.28304,15.08196 Z M44.56104,6.03276 C39.30384,6.03276 35.18424,9.97836 35.18424,15.01596 L35.18424,15.08196 C35.18424,20.08236 39.27384,24.00036 44.49624,24.00036 C49.75344,24.00036 53.87184,20.05476 53.87184,15.01596 L53.87184,14.95116 C53.87184,9.86676 49.86984,6.03276 44.56104,6.03276 L44.56104,6.03276 Z" id="Fill-1" fill="#FFFFFF"></path>
                <path d="M62.12328,9.80148 L61.80648,10.55268 L61.80648,6.35988 L57.15168,6.35988 L57.15168,23.60628 L61.80648,23.60628 L61.80648,17.27868 C61.80648,13.17708 63.76368,10.91868 67.31688,10.91868 L67.41288,10.91868 L67.41288,6.02748 C64.92408,5.95908 63.22608,7.16988 62.12328,9.80148" id="Fill-4" fill="#FFFFFF"></path>
                <polygon id="Fill-6" fill="#FFFFFF" points="86.43852 6.36024 80.93052 6.36024 74.85732 13.01304 74.85732 0.00024 70.20252 0.00024 70.20252 23.60664 74.85732 23.60664 74.85732 18.36144 76.78452 16.32504 76.89732 16.50264 81.43932 23.60664 86.75292 23.60664 79.92732 13.09464"></polygon>
                <path d="M98.92488,6.03276 C96.39168,6.03276 94.96608,7.42596 93.90528,8.78916 L93.61248,9.16716 L93.61248,0.00036 L88.95768,0.00036 L88.95768,23.60676 L93.61248,23.60676 L93.61248,13.96716 C93.61248,11.59116 94.80768,10.22916 96.89208,10.22916 C98.94168,10.22916 100.07208,11.55636 100.07208,13.96716 L100.07208,23.60676 L104.72808,23.60676 L104.72808,12.39276 C104.72808,8.40996 102.55848,6.03276 98.92488,6.03276" id="Fill-8" fill="#FFFFFF"></path>
                <path d="M118.4658,17.57328 C118.4658,19.48488 116.793,20.81928 114.399,20.81928 C112.647,20.81928 111.5142,19.91808 111.5142,18.52368 L111.5142,18.45888 C111.5142,16.81368 112.8294,15.86928 115.1214,15.86928 C116.2794,15.86928 117.4338,16.10688 118.3698,16.53888 L118.4658,16.58328 L118.4658,17.57328 Z M115.1874,6.16368 C112.2822,6.16368 110.4246,6.69648 108.5694,7.50048 L109.7166,11.00088 C111.3006,10.42848 112.611,10.09848 114.4662,10.09848 C117.003,10.09848 118.3998,11.29848 118.3998,13.47528 L118.3998,13.99968 L118.1826,13.92528 C117.153,13.57368 115.8426,13.21248 113.9406,13.21248 C109.5438,13.21248 107.0238,15.19728 107.0238,18.65568 L107.0238,18.72168 C107.0238,22.32288 109.9698,23.93448 112.8906,23.93448 C115.0626,23.93448 116.7606,23.22288 118.0818,21.75888 L118.3674,21.44328 L118.3674,23.60688 L122.8578,23.60688 L122.8578,13.57368 C122.8578,11.16048 122.235,9.31368 121.005,8.08248 C119.7318,6.80928 117.7734,6.16368 115.1874,6.16368 L115.1874,6.16368 Z" id="Fill-10" fill="#FFFFFF"></path>
                <polygon id="Fill-12" fill="#FFFFFF" points="126.4008 23.6064 131.0556 23.6064 131.0556 0 126.4008 0"></polygon>
                <polygon id="Fill-14" fill="#FFFFFF" points="134.9904 23.6064 139.6452 23.6064 139.6452 0 134.9904 0"></polygon>
                <polygon id="Fill-16" fill="url(#linearGradient-1)" points="30.7296 0 25.6272 16.668 22.6224 7.098 20.2152 14.3472 23.4636 23.76 27.7788 23.76 35.8344 0"></polygon>
                <polygon id="Fill-19" fill="#FFFFFF" points="15.24828 -0.00012 13.21908 6.89508 12.39588 9.69348 10.34268 16.66788 5.24388 -0.00012 -0.00012 -0.00012 8.05548 23.75988 12.37188 23.75988 14.68068 16.91868 15.63348 14.09868 17.85108 7.52988 20.39388 -0.00012"></polygon>
            </g>
        </g>
    </g>
</svg>