<?xml version="1.0" encoding="UTF-8"?>
<svg width="24px" height="24px" viewBox="0 0 24 24" version="1.1" xmlns="http://www.w3.org/2000/svg" xmlns:xlink="http://www.w3.org/1999/xlink">
    <title>twitter</title>
    <g id="Page-1" stroke="none" stroke-width="1" fill="none" fill-rule="evenodd">
        <g id="Contact" transform="translate(-1119.000000, -3128.000000)" fill="#B0B2B8">
            <g id="Group-8" transform="translate(0.000000, 2567.000000)">
                <g id="Group-10" transform="translate(982.000000, 561.000000)">
                    <g id="socials" transform="translate(88.000000, 0.000000)">
                        <path d="M68.5,0 C70.9858462,0 73,2.01415385 73,4.5 L73,4.5 L73,19.5 C73,21.9858462 70.9858462,24 68.5,24 L68.5,24 L53.5,24 C51.0141538,24 49,21.9858462 49,19.5 L49,19.5 L49,4.5 C49,2.01415385 51.0141538,0 53.5,0 L53.5,0 Z M64.0771124,6 C62.2642591,6 60.7947771,7.46987553 60.7947771,9.28184012 C60.7947771,9.5390222 60.8243144,9.79005159 60.8796969,10.0293909 C58.1518019,9.89280136 55.7334333,8.58597189 54.1138033,6.59988641 C53.831968,7.08471769 53.6701281,7.64830328 53.6701281,8.25065076 C53.6701281,9.38889678 54.2491827,10.3936296 55.1297642,10.9818259 C54.5919388,10.9645984 54.0854967,10.8169341 53.6430522,10.5714421 L53.6430522,10.6126651 L53.6430522,10.6126651 C53.6430522,12.2031331 54.7740856,13.5296512 56.2761817,13.8305173 C56.0011153,13.90558 55.710665,13.9455724 55.4109842,13.9455724 C55.1999154,13.9455724 54.9937695,13.9246533 54.7937772,13.887122 C55.2116072,15.1908751 56.4238683,16.1402338 57.8601208,16.1666903 C56.737087,17.047139 55.3217569,17.5719627 53.7833545,17.5719627 C53.5187493,17.5719627 53.2572209,17.556581 53,17.5258176 C54.4528672,18.4567183 56.1777239,19 58.0318065,19 C64.0697281,19 67.3705242,13.9991008 67.3705242,9.66207582 C67.3705242,9.51994889 67.3674474,9.37843722 67.3612938,9.23754082 C68.0031153,8.77424393 68.5600169,8.19650717 69,7.53878556 C68.4110996,7.8002745 67.7785085,7.97624119 67.1145341,8.05561077 C67.7926618,7.64953382 68.3126418,7.00657864 68.5575555,6.23995456 C67.9237337,6.61588338 67.2209915,6.88906243 66.4727126,7.03672677 C65.8739664,6.39869374 65.0210761,6 64.0771124,6 Z" id="twitter"></path>
                    </g>
                </g>
            </g>
        </g>
    </g>
</svg>