<svg width="468" height="347" viewBox="0 0 468 347" xmlns="http://www.w3.org/2000/svg" xmlns:xlink="http://www.w3.org/1999/xlink">
    <defs>
        <linearGradient x1="64.324%" y1="93.736%" x2="37.756%" y2="-11.751%" id="c">
            <stop stop-color="#444B8C" offset="0%"/>
            <stop stop-color="#26264F" offset="99.64%"/>
        </linearGradient>
        <linearGradient x1="55.093%" y1="93.736%" x2="45.646%" y2="-11.751%" id="d">
            <stop stop-color="#444B8C" offset="0%"/>
            <stop stop-color="#26264F" offset="99.64%"/>
        </linearGradient>
        <linearGradient x1="64.025%" y1="93.736%" x2="38.011%" y2="-11.751%" id="e">
            <stop stop-color="#444B8C" offset="0%"/>
            <stop stop-color="#26264F" offset="99.64%"/>
        </linearGradient>
        <linearGradient x1="55.299%" y1="93.736%" x2="45.47%" y2="-11.751%" id="f">
            <stop stop-color="#444B8C" offset="0%"/>
            <stop stop-color="#26264F" offset="99.64%"/>
        </linearGradient>
        <linearGradient x1=".022%" y1="50.016%" x2="99.957%" y2="50.016%" id="g">
            <stop stop-color="#444B8C" offset="0%"/>
            <stop stop-color="#26264F" offset="99.64%"/>
        </linearGradient>
        <linearGradient x1="65.141%" y1="4.669%" x2="42.398%" y2="70.007%" id="h">
            <stop stop-color="#FFF" offset="0%"/>
            <stop stop-color="#EBEFF2" offset="99.64%"/>
        </linearGradient>
        <linearGradient x1="-1.413%" y1="50.585%" x2="99.263%" y2="50.585%" id="i">
            <stop stop-color="#FFC444" offset="0%"/>
            <stop stop-color="#F36F56" offset="99.64%"/>
        </linearGradient>
        <linearGradient x1="44.327%" y1="75.553%" x2="51.558%" y2="42.221%" id="j">
            <stop stop-color="#311944" offset="9.996%"/>
            <stop stop-color="#371B47" offset="26.7%"/>
            <stop stop-color="#462150" offset="48.03%"/>
            <stop stop-color="#612A5F" offset="71.86%"/>
            <stop stop-color="#853774" offset="97.36%"/>
            <stop stop-color="#893976" offset="100%"/>
        </linearGradient>
        <linearGradient x1="53.504%" y1="55.696%" x2="193.387%" y2="244.312%" id="k">
            <stop stop-color="#311944" offset="9.996%"/>
            <stop stop-color="#371B47" offset="26.7%"/>
            <stop stop-color="#462150" offset="48.03%"/>
            <stop stop-color="#612A5F" offset="71.86%"/>
            <stop stop-color="#853774" offset="97.36%"/>
            <stop stop-color="#893976" offset="100%"/>
        </linearGradient>
        <linearGradient x1="1.037%" y1="51.102%" x2="100.976%" y2="51.102%" id="l">
            <stop stop-color="#FFC444" offset="0%"/>
            <stop stop-color="#F36F56" offset="99.64%"/>
        </linearGradient>
        <linearGradient x1="87.399%" y1="14.145%" x2="30.553%" y2="66.541%" id="m">
            <stop stop-color="#444B8C" offset="0%"/>
            <stop stop-color="#26264F" offset="100%"/>
        </linearGradient>
        <linearGradient x1="77.507%" y1="87.813%" x2="26.486%" y2="-3.387%" id="n">
            <stop stop-color="#444B8C" offset="0%"/>
            <stop stop-color="#26264F" offset="99.64%"/>
        </linearGradient>
        <linearGradient x1="77.507%" y1="59.881%" x2="26.486%" y2="36.05%" id="o">
            <stop stop-color="#444B8C" offset="0%"/>
            <stop stop-color="#26264F" offset="99.64%"/>
        </linearGradient>
        <linearGradient x1="63.581%" y1="106.551%" x2="46.75%" y2="35.155%" id="p">
            <stop stop-color="#311944" offset="0%"/>
            <stop stop-color="#893976" offset="100%"/>
        </linearGradient>
        <linearGradient x1="4.651%" y1="100%" x2="95.349%" y2="0%" id="q">
            <stop stop-color="#72BE44" offset="0%"/>
            <stop stop-color="#00A0FD" offset="100%"/>
        </linearGradient>
        <linearGradient x1="5.975%" y1="100%" x2="94.025%" y2="0%" id="r">
            <stop stop-color="#72BE44" offset="0%"/>
            <stop stop-color="#00A0FD" offset="100%"/>
        </linearGradient>
        <linearGradient x1="2.41%" y1="100%" x2="97.59%" y2="0%" id="s">
            <stop stop-color="#72BE44" offset="0%"/>
            <stop stop-color="#00A0FD" offset="100%"/>
        </linearGradient>
        <linearGradient x1="69.654%" y1="25.395%" x2="39.838%" y2="66.059%" id="t">
            <stop stop-color="#444B8C" offset="0%"/>
            <stop stop-color="#3E4177" offset="100%"/>
        </linearGradient>
        <linearGradient x1="91.101%" y1="25.395%" x2="28.749%" y2="66.059%" id="u">
            <stop stop-color="#444B8C" offset="0%"/>
            <stop stop-color="#3E4177" offset="100%"/>
        </linearGradient>
        <linearGradient x1="75.054%" y1="98.716%" x2="54.962%" y2="64.577%" id="v">
            <stop stop-color="#AA80F9" offset="0%"/>
            <stop stop-color="#6165D7" offset="99.64%"/>
        </linearGradient>
        <linearGradient x1="95.757%" y1="45.959%" x2="26.341%" y2="52.637%" id="w">
            <stop stop-color="#444B8C" offset="0%"/>
            <stop stop-color="#3E4177" offset="100%"/>
        </linearGradient>
        <linearGradient x1="22.002%" y1="100%" x2="77.998%" y2="0%" id="x">
            <stop stop-color="#72BE44" offset="0%"/>
            <stop stop-color="#00A0FD" offset="100%"/>
        </linearGradient>
        <linearGradient x1="99.997%" y1="49.9%" x2="-.233%" y2="49.9%" id="y">
            <stop stop-color="#40447E" offset="0%"/>
            <stop stop-color="#3C3B6B" offset="99.64%"/>
        </linearGradient>
        <linearGradient x1="76.759%" y1="37.86%" x2="29.194%" y2="59.463%" id="z">
            <stop stop-color="#40447E" offset="0%"/>
            <stop stop-color="#3C3B6B" offset="99.64%"/>
        </linearGradient>
        <linearGradient x1="96.63%" y1="30.982%" x2="36.286%" y2="64.396%" id="A">
            <stop stop-color="#40447E" offset="0%"/>
            <stop stop-color="#3C3B6B" offset="99.64%"/>
        </linearGradient>
        <linearGradient x1="15.084%" y1="100%" x2="84.916%" y2="0%" id="B">
            <stop stop-color="#72BE44" offset="0%"/>
            <stop stop-color="#00A0FD" offset="100%"/>
        </linearGradient>
        <linearGradient x1="52.77%" y1="25.395%" x2="48.568%" y2="66.059%" id="C">
            <stop stop-color="#444B8C" offset="0%"/>
            <stop stop-color="#3E4177" offset="100%"/>
        </linearGradient>
        <linearGradient x1="61.978%" y1="25.395%" x2="43.807%" y2="66.059%" id="D">
            <stop stop-color="#444B8C" offset="0%"/>
            <stop stop-color="#3E4177" offset="100%"/>
        </linearGradient>
        <linearGradient x1="0%" y1="91.231%" x2="100%" y2="8.769%" id="E">
            <stop stop-color="#72BE44" offset="0%"/>
            <stop stop-color="#00A0FD" offset="100%"/>
        </linearGradient>
        <linearGradient x1="26.273%" y1="100%" x2="73.727%" y2="0%" id="F">
            <stop stop-color="#72BE44" offset="0%"/>
            <stop stop-color="#00A0FD" offset="100%"/>
        </linearGradient>
        <linearGradient x1="-2.545%" y1="41.563%" x2="103.428%" y2="58.794%" id="G">
            <stop stop-color="#444B8C" offset="0%"/>
            <stop stop-color="#26264F" offset="99.64%"/>
        </linearGradient>
        <linearGradient x1="3.527%" y1="37.922%" x2="96.618%" y2="61.737%" id="H">
            <stop stop-color="#444B8C" offset="0%"/>
            <stop stop-color="#26264F" offset="99.64%"/>
        </linearGradient>
        <linearGradient x1="74.174%" y1="96.56%" x2="41.031%" y2="32.439%" id="I">
            <stop stop-color="#444B8C" offset="0%"/>
            <stop stop-color="#26264F" offset="99.64%"/>
        </linearGradient>
        <linearGradient x1="23.541%" y1=".118%" x2="71.562%" y2="90.986%" id="J">
            <stop stop-color="#444B8C" offset="0%"/>
            <stop stop-color="#26264F" offset="99.64%"/>
        </linearGradient>
        <filter x="-8.1%" y="-11.4%" width="118.1%" height="125.5%" filterUnits="objectBoundingBox" id="a">
            <feOffset dx="4" dy="4" in="SourceAlpha" result="shadowOffsetOuter1"/>
            <feGaussianBlur stdDeviation="12" in="shadowOffsetOuter1" result="shadowBlurOuter1"/>
            <feColorMatrix values="0 0 0 0 0 0 0 0 0 0 0 0 0 0 0 0 0 0 0.2 0" in="shadowBlurOuter1"/>
        </filter>
        <filter x="-41.3%" y="-41.3%" width="191.8%" height="191.8%" filterUnits="objectBoundingBox" id="K">
            <feOffset dx="4" dy="4" in="SourceAlpha" result="shadowOffsetOuter1"/>
            <feGaussianBlur stdDeviation="12.5" in="shadowOffsetOuter1" result="shadowBlurOuter1"/>
            <feColorMatrix values="0 0 0 0 0.141176471 0 0 0 0 0.666666667 0 0 0 0 0.768627451 0 0 0 0.3 0" in="shadowBlurOuter1"/>
        </filter>
        <circle id="L" cx="43.012" cy="43.012" r="43.012"/>
        <rect id="b" x="0" y="0" width="420" height="298.554" rx="8"/>
    </defs>
    <g fill="none" fill-rule="evenodd">
        <g transform="translate(20 20)">
            <use fill="#000" filter="url(#a)" xlink:href="#b"/>
            <use fill="#F7F7F7" xlink:href="#b"/>
        </g>
        <path d="M220.183 49.894s-80.538 4.872-78.66 50.032c.562 12.93-2.63 25.86-12.204 35.603-6.007 5.997-14.08 10.494-18.21 17.99-8.26 14.99-2.816 33.167 1.69 47.97 4.505 14.803 7.51 30.544 16.52 43.66 4.882 7.309 11.452 14.242 18.774 19.489 9.95 7.308 22.904 10.306 35.482 10.494 71.715 1.124 150.94-3.936 159.012-93.319 8.073-89.195-45.432-143.537-122.404-131.919z" fill="#EEF2F6" fill-rule="nonzero"/>
        <path d="m176.448 185.014 20.805 5.518s6.88-9.413 3.768-18.177c-6.225-17.853 10.157-22.072 16.71-24.67 9.992-4.057 15.89-11.36 7.371-19.312-9.501-8.927 4.75-22.235 21.788-26.617 16.71-4.22 18.675-35.868-18.348-29.863-22.115 3.57-24.736 24.832-28.668 35.219-3.931 10.387-20.313 6.978-18.511 21.585 1.638 12.497 8.355 23.046-.655 28.889-8.683 5.843-11.795 14.282-4.26 27.428z" fill="url(#c)" fill-rule="nonzero" transform="translate(74.65 48.337)"/>
        <g opacity=".8" fill="#BEB8F2" fill-rule="nonzero">
            <path d="M259.618 237.734h.491c0-.325 2.457-27.916 13.433-54.695 9.993-24.506 29.487-53.395 64.872-50.798v-.487c-15.727-1.136-29.815 3.732-41.61 14.444-9.338 8.764-17.365 21.099-23.753 36.841-10.976 26.617-13.433 54.37-13.433 54.695z"/>
            <path d="M292.217 151.067h.492c2.13-14.77 13.269-33.596 13.433-33.758l-.328-.162c-.328.162-11.467 19.15-13.597 33.92zM300.244 144.088c17.365-5.031 29.979 2.922 29.979 3.084l.327-.325c-.163-.162-12.941-8.277-30.47-3.083l.164.324zM267.317 200.892c10.648-18.989 40.135-16.392 40.463-16.392l.164-.487c-.328 0-30.307-2.596-40.955 16.717l.328.162zM269.61 192.29h.492c.819-13.795-10.976-26.616-11.14-26.779l-.327.325c0 .162 11.794 12.821 10.975 26.454zM260.6 233.352c2.785-7.79 16.055-10.874 16.218-11.037l-.163-.324c-.492.162-13.597 3.246-16.546 11.198l.491.163zM261.092 226.86h.491c.656-6.492-6.88-15.905-9.501-18.99-.328-.486-.655-.81-.655-.973l-.328.162c0 .163.328.325.82.974 2.293 3.084 9.828 12.497 9.173 18.827z"/>
        </g>
        <path d="M197.835 105.31c3.269 3.4 2.615 8.097 1.634 11.336-.49.162-.653.323-1.143.485-3.76 2.106-5.884 2.106-9.969 3.563-.817.324-3.759.486-4.903.486h-2.124s-6.7-8.907-1.961-13.117c4.74-4.21-.49-13.441-2.615-18.623-1.307-3.239-.817-5.02-1.144-6.316-3.105-13.279-8.334-16.032-6.537-20.89 1.798-5.506 8.662-3.725 10.95-9.554 2.614-6.64-4.25-13.28-.327-18.785.653-.972 1.307-1.944 2.778-2.753 3.268-2.106 6.863-.81 8.498-4.535 3.431-7.449 11.439-11.821 18.466-7.287 7.027 4.534 4.576 18.3-7.68 32.064-7.518 10.85-7.028 13.28-4.25 18.947 1.798 3.886 9.479 13.44 4.74 19.433-5.066 5.668-8.335 11.497-4.413 15.546z" fill="url(#d)" fill-rule="nonzero" transform="translate(74.65 48.337)"/>
        <g opacity=".5" fill="#FCFDFE" fill-rule="nonzero">
            <path d="M265.295 168.546h-.326c-.327-1.782-.49-3.401-.817-5.182-1.798-12.632-2.288-24.94-1.308-36.599.817-9.878 2.451-19.432 5.23-28.501 2.124-7.287 4.902-14.25 8.334-20.566 2.288-4.535 4.903-8.745 7.68-12.47l1.471-1.943c.654-.81 1.471-1.781 1.961-2.591l.327.162c-.653.972-1.307 1.781-1.96 2.591l-1.471 1.943c-2.779 3.725-5.393 7.935-7.681 12.47-3.269 6.315-6.047 13.279-8.335 20.566-2.778 9.068-4.412 18.623-5.229 28.501-.98 11.66-.49 23.967 1.307 36.598.164 1.62.49 3.24.817 5.02z"/>
            <path d="M265.459 109.438h-.327c2.124-12.308-9.151-31.093-9.151-31.255l.326-.161c0 .323 11.276 18.946 9.152 31.416zM262.68 144.579h-.326c.327-8.583 14.544-18.947 14.708-19.11l.163.163c-.163.162-14.054 10.526-14.544 18.947zM263.008 149.437h-.327c-.817-5.506-5.23-12.631-12.257-19.919l-.49-.324h.327-.164.164l.327.324c7.19 7.288 11.602 14.413 12.42 19.919zM264.805 165.469h-.327c.98-6.154 9.642-10.85 9.806-10.85l.163.324c-.163-.162-8.661 4.534-9.642 10.526zM264.805 168.708c-2.615-4.373-6.7-8.097-12.42-11.498l.164-.324c5.883 3.4 9.968 7.125 12.583 11.498l-.327.324zM274.61 81.746h-.326c1.634-6.801 1.634-14.25 1.634-16.842v-.81h.327v.81c0 2.43 0 9.879-1.635 16.842zM270.198 92.434l-.327-.162c3.595-5.668 17.323-9.392 17.976-9.554l.164.324c-.164 0-14.381 3.724-17.813 9.392z"/>
        </g>
        <path d="M271.995 199.934c-1.149 0-.492-5.675-4.596-12.485-.985-1.622-5.91-11.188-13.952-10.54-1.642.162-3.12.325-4.76.325-1.806-3.243-2.791-6.81 1.805-8.594 7.222-2.919 5.745-15.08 3.119-19.133-3.283-5.026-10.506-16.863.492-21.565 9.192-3.891 15.923-4.702 15.102-16.052-.821-11.512 4.924-19.295 16.086-19.944 11.819-.648 19.534-16.214 29.711-12.484 17.892 6.485 6.074 33.239-13.296 42.805-19.37 9.567-6.73 15.08-4.924 24.322.164.81.164 2.27 0 3.891-.985 10.053-11.162 12.81-17.728 21.727-8.7 11.999-5.253 27.727-7.059 27.727z" fill="#424885" fill-rule="nonzero"/>
        <g opacity=".5" fill="#FCFDFE" fill-rule="nonzero">
            <path d="M262.967 174.801h-.492c3.119-37.617 26.1-73.612 59.75-93.88l.328.486c-33.65 20.106-56.467 55.94-59.586 93.394z"/>
            <path d="M266.578 154.371h-.492c-1.97-14.755-17.071-24.645-17.236-24.807l.329-.487c.164.324 15.43 10.377 17.4 25.294zM263.788 167.83l-.493-.163c5.91-13.944 34.964-19.133 35.292-19.133l.164.487c-.492 0-29.218 5.188-34.963 18.808zM282.008 120.321l-.492-.162c3.611-11.35-6.238-27.24-6.238-27.402l.493-.324c0 .162 10.013 16.214 6.237 27.888zM297.438 101.026l-.328-.324c11.49-8.431 31.188-6.648 31.352-6.648v.487c-.164-.162-19.697-1.784-31.024 6.485z"/>
        </g>
        <path d="m51.983 148.526 13.49 3.623s4.455-6.16 2.433-11.901c-4.043-11.693 6.575-14.449 10.821-16.146 6.476-2.653 10.296-7.432 4.77-12.644-6.163-5.85 3.07-14.557 14.112-17.419 10.83-2.756 12.09-23.478-11.907-19.563-14.335 2.328-16.025 16.25-18.569 23.049-2.544 6.8-13.165 4.56-11.99 14.126 1.068 8.184 5.427 15.095-.412 18.917-5.625 3.822-7.64 9.347-2.748 17.958z" fill="url(#e)" fill-rule="nonzero" transform="scale(-1 1) rotate(14 -234.163 -794.863)"/>
        <g opacity=".8" fill="#BEB8F2" fill-rule="nonzero">
            <path d="m180.107 193.87-.31.076c-.05-.206-5.968-17.354-17.113-32.65-10.168-14.007-27.005-29.308-48.846-22.11l-.078-.309c9.71-3.188 19.342-2.303 28.457 2.655 7.261 4.105 14.264 10.685 20.776 19.687 11.12 15.193 17.062 32.444 17.114 32.65z"/>
            <path d="m145.873 143.907-.309.077c-3.68-9.052-13.668-19.269-13.796-19.346l.18-.155c.232.052 10.246 10.372 13.925 19.424zM139.72 140.73c-11.718-.474-18.391 6.557-18.365 6.66l-.258-.154c.077-.13 6.828-7.29 18.674-6.738l-.052.232zM169.427 171.665c-9.705-10.397-27.838-4.124-28.044-4.072l-.18-.284c.206-.051 18.648-6.402 28.405 4.201l-.18.155zM166.622 166.558l-.309.077c-2.7-8.638 2.685-18.635 2.763-18.764l.257.155c.026.103-5.386 9.997-2.71 18.532zM178.794 191.239c-2.986-4.514-11.819-4.393-11.948-4.47l.052-.232c.335.026 9.065-.07 12.18 4.522l-.284.18zM177.457 187.19l-.31.078c-1.44-4.023 1.807-11.187 2.967-13.557.13-.361.284-.619.258-.722l.232.052c.026.103-.155.258-.361.747-.954 2.32-4.201 9.483-2.786 13.402z"/>
        </g>
        <path d="M87.236 93.616c2.18 2.224 1.747 5.292 1.094 7.408-.326.106-.435.211-.762.317-2.505 1.374-3.922 1.373-6.645 2.323-.545.212-2.506.316-3.27.316l-1.416-.001s-4.471-5.823-1.313-8.572c3.158-2.75-.333-8.783-1.752-12.17-.873-2.117-.547-3.281-.766-4.128-2.076-8.678-5.564-10.48-4.368-13.653 1.196-3.597 5.774-2.43 7.297-6.238 1.74-4.338-2.84-8.68-.227-12.275.436-.635.871-1.27 1.851-1.798 2.179-1.374 4.576-.526 5.664-2.959 2.285-4.866 7.623-7.719 12.31-4.753 4.688 2.966 3.06 11.96-5.107 20.948-5.007 7.086-4.68 8.674-2.824 12.379 1.2 2.54 6.326 8.787 3.169 12.7-3.376 3.701-5.552 7.509-2.935 10.156z" fill="url(#f)" fill-rule="nonzero" transform="scale(-1 1) rotate(14 -234.163 -882.953)"/>
        <g opacity=".5" fill="#FCFDFE" fill-rule="nonzero">
            <path d="m165.59 150.648.211-.053c-.07-1.182-.22-2.236-.29-3.418-.835-8.3-2.464-16.183-4.941-23.419-2.09-6.132-4.659-11.927-7.89-17.23-2.526-4.278-5.424-8.246-8.642-11.697a55.386 55.386 0 0 0-6.94-6.669l-1.259-.995c-.55-.408-1.233-.892-1.678-1.327l-.186.156c.577.51 1.128.918 1.678 1.326l1.259.995a55.386 55.386 0 0 1 6.94 6.669c3.113 3.478 6.01 7.445 8.643 11.697 3.23 5.303 5.798 11.098 7.889 17.23 2.477 7.236 4.106 15.12 4.94 23.42.15 1.053.195 2.132.266 3.315z"/>
            <path d="m156.139 113.192.211-.053c-3.32-7.462 1.004-21.192.978-21.295l-.237-.05c.051.205-4.298 13.833-.952 21.398zM163.492 135.028l.211-.053c-1.568-5.39-12.404-9.669-12.535-9.745l-.08.129c.131.076 10.755 4.408 12.404 9.669zM164.048 138.161l.212-.052c-.342-3.624 1.385-8.854 4.779-14.608l.266-.285-.212.053.106-.026-.106.026-.16.258c-3.499 5.781-5.227 11.011-4.885 14.634zM165.42 148.618l.212-.053c-1.607-3.744-7.953-5.325-8.058-5.3l-.055.233c.08-.13 6.32 1.478 7.901 5.12zM165.932 150.671c1-3.194 3.054-6.215 6.216-9.294l-.156-.179c-3.268 3.106-5.322 6.126-6.322 9.32l.262.153zM145.84 97.108l.212-.053c-2.132-4.05-3.31-8.773-3.72-10.416l-.128-.514-.211.053s.05.206.128.514c.384 1.54 1.562 6.264 3.72 10.416zM150.385 103.174l.185-.156c-3.221-3.014-12.69-3.162-13.138-3.16l-.055.233c.106-.027 9.892.042 13.008 3.083z"/>
        </g>
        <path d="M166.837 172.07c.729-.182-.58-3.671.949-8.633.369-1.183 1.985-8.02 7.185-8.884 1.066-.157 2.028-.289 3.068-.55.634-2.338.697-4.753-2.497-5.154-5.037-.702-6.015-8.636-4.988-11.618 1.29-3.703 4.005-12.341-3.706-13.575-6.439-1.007-10.832-.453-12.098-7.769-1.292-7.418-6.159-11.435-13.336-10.076-7.593 1.462-14.933-7.17-20.797-3.195-10.32 6.942 1.382 22.006 15.165 24.993 13.783 2.986 6.639 8.48 6.949 14.617.023.54.253 1.463.612 2.464 2.207 6.208 9.091 6.34 14.657 10.945 7.403 6.217 7.693 16.721 8.837 16.435z" fill="#424885" fill-rule="nonzero"/>
        <g opacity=".5" fill="#FCFDFE" fill-rule="nonzero">
            <path d="m168.626 154.74.313-.078c-7.915-23.323-28.164-42.48-52.692-49.993l-.132.36c24.503 7.41 44.622 26.49 52.511 49.71z"/>
            <path d="m163.112 142.376.313-.078c-1.08-9.652 6.93-18.3 7.009-18.43l-.285-.255c-.053.23-8.143 9.008-7.037 18.763zM167.006 150.455l.286-.18c-5.947-7.894-25.182-6.587-25.39-6.536l-.027.334c.312-.078 19.339-1.332 25.13 6.382zM147.957 123.258l.287-.18c-4.08-6.616-.346-18.232-.372-18.335l-.363-.127c.025.102-3.788 11.847.448 18.642zM135.131 113.48l.157-.257c-8.614-3.522-20.818.72-20.922.746l.077.308c.078-.128 12.204-4.242 20.688-.796z"/>
        </g>
        <path d="m193.321 32.517-70.53-2.236-34.323-1.119c-2.451 0-4.526 1.678-4.526 4.1V222.44c0 2.423 2.075 4.1 4.526 3.914l104.853-7.641c2.075-.187 3.96-2.05 3.96-4.287V36.617c0-2.05-1.885-3.914-3.96-4.1z" fill="url(#g)" fill-rule="nonzero" transform="translate(74.65 48.337)"/>
        <path d="M270.046 80.854 165.193 77.5c-2.451 0-4.337 1.677-4.337 4.1v189.178c0 2.423 1.886 4.1 4.337 3.914l104.853-7.642c2.075-.186 3.96-2.05 3.96-4.287V84.955c0-2.05-1.697-3.914-3.96-4.1z" fill="#D8DEE8" fill-rule="nonzero"/>
        <path d="M227.238 219.895c-1.698-21.433 11.503-30.566 6.412-49.95-6.224-24.043-30.363-24.975-38.66-48.646-3.206-9.132-4.338-22.738 4.714-42.868l-34.322-1.118c-2.452 0-4.338 1.678-4.338 4.1v189.178c0 2.423 1.886 4.1 4.338 3.914l93.538-6.896c-23.762-17.52-30.55-34.48-31.682-47.714z" opacity=".3" fill="#D8DEE8" fill-rule="nonzero"/>
        <path d="M195.396 34.94 90.543 31.585c-.943 0-1.886.746-1.886 1.678v188.991c0 .932.754 1.677 1.886 1.677l104.853-7.455c.943 0 1.509-.932 1.509-1.677V36.617c.188-.931-.566-1.677-1.51-1.677z" fill="url(#h)" fill-rule="nonzero" transform="translate(74.65 48.337)"/>
        <path d="M227.238 219.895c-1.698-21.433 11.503-30.566 6.412-49.95-6.224-24.043-30.363-24.975-38.66-48.646-3.018-8.76-4.338-21.62 3.583-40.445l-33.191-1.118c-.943 0-1.886.746-1.886 1.678v188.991c0 .932.754 1.677 1.886 1.677l90.71-6.523c-21.5-16.774-27.723-32.99-28.854-45.664z" fill="#FFF" fill-rule="nonzero" opacity=".35"/>
        <path d="M66.732 164.321s5.037 1.684 5.597 10.104H69.53s.374-5.987-3.17-7.297c.186-.748.372-2.807.372-2.807z" fill="url(#i)" fill-rule="nonzero" transform="translate(74.65 48.337)"/>
        <path d="M47.892 163.573c.186 1.497.186 2.994.373 4.678 2.611-.749 5.41-1.497 8.394-1.497 3.917-.187 7.462.374 10.446 1.122.187-.187.373-.561.56-1.31.187-1.122-.187-2.245-.187-2.432-1.678-.561-3.357-1.122-5.223-1.497-5.41-1.122-10.26-.187-14.363.936z" fill="url(#j)" fill-rule="nonzero" transform="translate(74.65 48.337)"/>
        <path d="M47.705 164.883c0-.562 0-1.31.187-1.31.186 0 .373.374.56.748 0 .187.186.375.186 1.31 0 1.123 0 1.684-.187 2.058 0 .187-.186.562-.186.562s-.187-.188-.373-.562c0-.561-.187-1.497-.187-2.806z" fill="url(#k)" fill-rule="nonzero" transform="translate(74.65 48.337)"/>
        <path d="M42.855 174.612c1.12.187 3.73.748 3.73.748s-1.678-5.426 1.493-7.858c0-.374.187-1.123 0-1.87 0-.562-.186-1.124-.373-1.498-1.306.936-4.29 3.368-4.85 10.478z" fill="url(#l)" fill-rule="nonzero" transform="translate(74.65 48.337)"/>
        <path d="M95.12 224.072s.187-2.807 4.664-2.807c.746.562.746 2.807.746 2.807h-5.41z" fill="#1F243D" fill-rule="nonzero"/>
        <path d="m91.017 280.764 12.498 7.297 7.462-27.691-12.312-37.234-3.544.936-5.41 53.698c-.186 1.31.373 2.433 1.306 2.994z" fill="#1F243D" fill-rule="nonzero"/>
        <path fill="url(#m)" fill-rule="nonzero" d="m24.014 174.8 66.409.747 10.26 57.067-71.818 7.11z" transform="translate(74.65 48.337)"/>
        <path d="m90.423 175.547-22.012-.187c-.373 1.123-1.12 2.807-1.865 4.678-10.073 20.207-33.204 22.826-32.831 26.194.56 5.052 51.671-2.245 52.79 4.49.56 3.181-9.886 10.853-21.078 13.66-13.431 3.554-23.505-.562-30.22 7.296-2.239 2.62-3.358 5.8-3.73 7.858l69.02-6.735-10.074-57.254z" fill="url(#n)" fill-rule="nonzero" transform="translate(74.65 48.337)"/>
        <path d="M99.784 221.265c-.746 0-1.865-.187-2.984.562-.187.187-.56.374-.746.374l.56-.187c.932-.187 2.051.187 2.61.935.56 1.123.747 3.555.933 4.865.373 3.555 2.425 25.259 2.425 25.259.187 1.87 1.493 3.18 3.172 3.18l61.558-3.554c.373 0 .933-.188 1.306-.375.746-.561 1.12-1.684.933-2.806l-2.985-25.072c-.187-1.497-1.306-2.432-2.612-2.432l-64.17-.749z" fill="#1F243D" fill-rule="nonzero"/>
        <path d="M25.88 172.928c-.746 0-1.679-.187-2.798.187-.187 0-.746.187-.933.374 0 0 2.239-.56 2.985 1.31.56 1.123.746 3.555.932 4.865.374 3.555 2.425 25.259 2.425 25.259.187 1.87 1.493 3.18 3.172 3.18l62.304-1.684c.373 0 .933-.187 1.306-.374.746-.561 1.12-1.684.933-2.806l-3.731-26.943c-.187-1.497-1.306-2.432-2.612-2.432l-63.983-.936z" fill="url(#o)" fill-rule="nonzero" transform="translate(74.65 48.337)"/>
        <path d="m96.206 203.239-3.731-26.943c-.187-1.497-1.306-2.432-2.612-2.432l-63.983-.749c-.746 0-1.679-.187-2.798.187-.187 0-.746.187-.933.374 0 0 2.239-.56 2.985 1.31 0 .187.186.374.186.561 6.156.375 12.498.188 18.654.749 12.125.935 24.25.935 35.443 5.987 3.544 1.497 5.97 7.11 5.037 9.73-.746 1.87-2.985 1.683-3.918 4.116-.932 2.62 1.306 4.303.373 6.174-.932 1.871-3.73.936-8.207 2.432-2.425.749-4.477 1.871-5.597 2.62l26.862-.749c.373 0 .933-.187 1.306-.374.746-.935 1.12-2.058.933-2.993z" fill="url(#p)" fill-rule="nonzero" opacity=".1" transform="translate(74.65 48.337)"/>
        <path d="m66.919 211.658-7.835 1.871h-.746c-.746 0-1.492-.561-1.679-1.684l-.373-9.168c0-.935.56-1.684 1.492-1.684h.747l7.834.936c.746 0 1.306-.374 1.493.561l.373 8.42c0 1.122-.56.561-1.306.748z" fill="url(#q)" transform="translate(74.65 48.337)"/>
        <path d="m67.478 212.78-8.58.75c-.747 0-1.493-.562-1.68-1.685l-.372-9.168c0-.935.56-1.684 1.492-1.684l8.58-.187c.747 0 1.307.749 1.493 1.684l.373 8.42c0 1.122-.56 1.87-1.306 1.87z" fill="url(#r)" transform="translate(74.65 48.337)"/>
        <path d="M125.19 182.755c1.122-.748.187-2.806 0-7.482 0-5.611 1.496-6.733.187-8.978-1.496-2.806-5.236-3.928-7.668-3.928-.56 0-.748-.374-5.236.935-8.228 2.058-10.285-.187-14.026 2.058-3.553 2.244-2.057 4.676-5.423 7.107-5.61 4.115-11.594-.374-15.522 3.18-3.74 3.367-3.927 11.784.187 16.273 4.489 5.238 12.717 3.741 18.14 2.619 1.122-.187 6.92-1.496 13.091-5.799a31.586 31.586 0 0 0 7.106-7.107c.374-.374.935-.936 1.683-.936.935 0 1.496.375 1.87.562 1.497 1.496 4.489 2.244 5.61 1.496z" fill="#1F243D" fill-rule="nonzero"/>
        <path d="M45.864 131.238c1.496-1.31 6.732 1.31 10.285 4.676 4.115 4.115 3.74 7.295 7.294 12.345 1.87 2.432 4.862 5.798 10.285 8.791l-1.122 2.806c-2.618.187-7.854 0-12.53-2.993-3.366-2.244-5.049-5.05-8.415-10.661-3.179-5.612-7.667-13.28-5.797-14.964z" fill="url(#s)" transform="translate(74.65 48.337)"/>
        <path d="m152.867 258.322-1.683-3.554c-.187-.561-.561-.936-1.122-1.31l-.748-.56s-2.057 0-2.244 1.121c0 1.497 2.992 5.05 5.049 6.547.374.187.748.561 1.122.374.187-.187 0-1.683-.374-2.618z" fill="#1F243D" fill-rule="nonzero"/>
        <path d="M149.688 251.027c-.187 1.496 0 2.244.374 2.805.187.375 2.244 3.741 1.496 4.302-.374.188-2.992-2.992-3.18-3.553-.186-.374-.373-.374-.373-1.497 0-.748-.187-1.496-.374-1.87.748-.187 1.309-.187 2.057-.187z" fill="#A2A7AE" fill-rule="nonzero"/>
        <path d="M152.68 239.056s1.87 2.244 1.496 4.676c-.374 2.432-3.553-1.122-3.927-2.245l-.935-2.805s2.244-1.684 3.366.374z" fill="#1F243D" fill-rule="nonzero"/>
        <path d="M151.932 235.502s-.561 2.619.374 3.928c.561.748 1.122 1.31.935 1.87a1.028 1.028 0 0 1-.935.561c-.748 0-1.309-1.309-1.496-2.057-.374-1.31-.748-3.928-.748-3.928l1.87-.374z" fill="#A2A7AE" fill-rule="nonzero"/>
        <path d="m75.785 189.41 1.683-.562c.935-2.058 2.058-5.424 1.684-9.352-.936-10.475-10.66-15.9-11.782-16.46-2.618 1.309-5.236 3.18-5.423 5.424-.187 2.993 3.927 4.49 7.667 8.791 2.431 2.432 4.862 6.36 6.171 12.158z" fill="url(#t)" fill-rule="nonzero" transform="translate(74.65 48.337)"/>
        <path d="M75.224 203.812c1.87-7.295 1.496-13.28.935-16.834-.748-5.238-2.43-15.9-9.724-19.827-1.496-.936-3.74-1.684-6.545-4.115-2.245-2.058-3.74-4.115-4.489-5.612-9.537-2.805-18.326-1.683-22.254 3.367-.374.561-1.496 1.87-1.87 3.741-.56 4.302 3.74 9.352 8.416 10.475 5.984 1.309 9.537-4.677 14.773-2.806 1.496.561 2.805 2.057 5.237 4.863 3.179 3.554 5.049 6.92 5.61 8.23 2.057 3.928 3.553 6.92 3.74 10.662 0 .935 0 2.618 1.122 4.489.748 1.496 1.87 2.431 2.618 2.993.935.374 1.683.374 2.431.374z" fill="url(#u)" fill-rule="nonzero" transform="translate(74.65 48.337)"/>
        <path d="M31.277 164.906c.187-1.87 1.31-3.18 1.87-3.74 3.928-5.051 12.717-6.173 22.254-3.368.935 1.497 2.244 3.554 4.489 5.612 2.805 2.431 4.862 3.18 6.545 4.115 4.301 2.431 6.732 7.295 8.041 11.97-2.057-2.992-3.74-3.927-5.049-3.927-1.87 0-2.805 1.496-5.05 1.31-2.43-.188-2.991-2.245-4.861-2.433-.561 0-1.31 0-2.245.562-1.122-1.123-2.057-1.87-2.992-2.245-5.236-2.057-8.79 4.115-14.773 2.806-4.489-1.31-8.603-6.547-8.229-10.662z" fill="url(#v)" fill-rule="nonzero" opacity=".3" transform="translate(74.65 48.337)"/>
        <path d="M70.362 170.705c-1.122 0-2.805 0-4.675.187-9.538.935-12.156 5.611-20.01 6.733-1.87.187-10.099 1.497-13.652-3.367-2.618-3.366-2.244-9.352.561-11.596 1.122-.936 2.431-.936 10.099-.936h8.602c12.156.187 14.587-.748 16.644 1.31.935.935 2.431 2.992 2.431 7.669z" fill="url(#w)" fill-rule="nonzero" transform="translate(74.65 48.337)"/>
        <path d="M44.555 131.799s-9.538-2.806-13.839 2.058c-.748.935-1.309 2.057-1.87 4.302-2.244 11.222 6.358 18.143 2.992 24.128-1.309 2.432-3.74 2.993-5.423 7.295-.374.748-1.31 3.367-.374 4.115.748.748 2.244-.748 4.675-.56 2.618.373 3.18 2.244 4.862 2.057 1.122-.187 1.684-1.123 3.367-3.554 2.43-3.554 3.553-5.238 4.488-5.799 3.366-2.431 5.984.749 9.911-1.683 1.496-.935 6.733-7.482 5.05-5.798-3.74-4.49-4.489-8.23-4.676-10.85-.187-2.805.748-4.114 0-7.481 0 0-.748-3.74-3.74-6.92-.374-.562-.748-1.123-5.423-1.31z" fill="url(#x)" transform="translate(74.65 48.337)"/>
        <g fill="#A2A7AE" fill-rule="nonzero">
            <path d="M116.213 173.964c.187.561.748 3.928-.56 4.676-.375.187-.936.374-1.87.561-.749.187-1.31.187-1.684.187 0 .561.187 1.497.935 2.245 1.683 2.244 5.236 1.683 5.797 1.496 1.87-.374 3.554-.935 3.928-1.122.56-.561 1.122-.935 1.496-1.31-.748-.374-2.057-1.122-2.992-1.496a23.54 23.54 0 0 1-1.87-.561c-.188-.561-.188-1.31-.375-1.87-1.122-.936-2.057-1.87-2.805-2.806z"/>
            <path d="M116.026 175.647s.187 2.432 2.618 2.806c2.058.374 3.74-4.676 2.619-5.986-.374-.374-1.31-.748-2.058-.748-.56 0-2.43.748-2.618 2.432-.374-.374-.748-.561-1.122-.374-.187.187-.187.748-.187.935.374.374.561.748.748.935z"/>
        </g>
        <path d="m61.386 159.482-21.693 1.122c-.374 0-.561.187-.748.374l-.561.935c-.374.562 0 1.123.56 1.123l23.003-.936-.561-2.618z" fill="url(#y)" fill-rule="nonzero" transform="translate(74.65 48.337)"/>
        <path d="m84.014 147.51-22.441.375c-.748 0-1.31.374-1.683.935l-7.855 13.655 23.75-.936c.561 0 1.31-.374 1.496-.935l7.294-11.97c.374-.562 0-1.123-.561-1.123z" fill="url(#z)" fill-rule="nonzero" transform="translate(74.65 48.337)"/>
        <path d="M59.89 148.82c.374-.561.935-.935 1.683-.935h.56c0 .748.375 1.31.749 1.87 1.309 1.684 3.74.562 5.423 2.432 1.87 1.87.187 4.302 1.87 5.985 1.683 1.87 4.675.375 7.854 1.497l-.56.748c-.375.561-.936.935-1.497.935l-23.75.935 7.668-13.467z" fill="url(#A)" fill-rule="nonzero" opacity=".3" transform="translate(74.65 48.337)"/>
        <path d="M41.376 158.734c.374-.749.56-1.497.935-2.245-3.18-.935-7.48-2.057-11.969-3.74-.748-.188-1.496-.562-1.87-1.31-.748-2.058 4.114-4.115 5.984-8.604 1.683-4.115.748-9.914-1.309-10.475-4.114-1.496-19.075 17.021-13.651 24.69 2.992 4.49 12.342 5.237 21.88 1.684z" fill="url(#B)" transform="translate(74.65 48.337)"/>
        <path d="M116.961 204.826c2.057-1.122 4.302 0 4.489.187.374.188 1.122.562 1.683 1.123 0 .187.935 1.31.56 1.683-.186.374-1.121 0-2.43-.748-.561 0-1.122-.187-2.058 0-1.496.187-2.244.561-2.805.187-.374-.374-.56-.935-.374-1.496 0-.374.561-.749.935-.936z" fill="#A2A7AE" fill-rule="nonzero"/>
        <path d="M329.746 268.001s-6.82 3.092-6.995 3.607c-.175.515 4.372-.172 6.295-.172 1.924 0 3.323-.515 3.148-1.202-.175-.687-.874-2.748-.874-2.748l-1.574.515z" fill="#1F243D" fill-rule="nonzero"/>
        <path d="m329.628 265.934.369 3.123s1.106.347 1.843 0l.369-3.297-2.581.174z" fill="#A2A7AE" fill-rule="nonzero"/>
        <path d="m362.035 265.76.89 1.15c.179.33.357.658.179 1.151-.357.986-.891 2.958-1.07 3.451-.355.658-4.808 1.15-4.808 1.15s-.356-.492.534-1.15c.89-.657 1.603-.657 1.96-1.643.356-.986.534-3.616.534-3.616l1.78-.493z" fill="#1F243D" fill-rule="nonzero"/>
        <path d="M358.876 261.805c.33.179 1.647 4.658 1.647 4.658s.494.538 1.318-.358c.823-.896.329-.359.329-.359l-.165-4.3-3.129.359z" fill="#A2A7AE" fill-rule="nonzero"/>
        <path d="M250.918 156.006a337.556 337.556 0 0 0 .173 29.5c.694 11.905 1.907 22.774 3.294 32.78h2.948c.693-2.07 1.734-4.83 2.427-7.936.867-3.45 1.387-6.383 1.734-9.316 1.214-10.351-.173-11.214.867-18.805.867-6.728 2.254-7.073 3.814-16.562 1.734-10.351.347-11.904-.173-12.421-2.6-2.76-8.842-1.208-15.084 2.76z" fill="url(#C)" fill-rule="nonzero" transform="translate(74.65 48.337)"/>
        <path d="M254.977 155.17c6.077 8.696 12.5 19.654 18.403 32.698 4.34 9.914 7.638 19.133 10.069 27.481.347.174 1.041.348 2.083.348 1.389-.174 2.083-1.043 2.257-1.217.868-5.914.868-10.958.52-14.61-.173-2.262-.52-6.262-2.083-10.958-1.736-5.392-2.777-5.566-5.034-11.306-2.257-5.913-1.736-7.305-3.82-14.61-.867-2.957-2.43-7.479-4.86-12.87-5.903 1.565-11.632 3.304-17.535 5.043z" fill="url(#D)" fill-rule="nonzero" transform="translate(74.65 48.337)"/>
        <path d="M296.259 123.423c0 1.915-1.23 2.96-2.813 4.874-5.1 6.614-10.55 17.23-11.78 26.803-.528 4.177-.352 8.18-3.517 11.661-.527.696-2.461 2.785-4.395 2.263-2.286-.522-2.11-3.83-4.924-5.396-1.054-.522-1.23-.174-5.626-.174-2.637 0-5.275 0-8.263-.174-2.814-.348-6.682-.696-7.033-2.436-.176-.697.351-1.219.703-1.915 1.758-2.61 1.406-4.351 2.286-8.18 1.758-7.136 5.45-13.402 5.45-14.098-.176-.174-1.055 1.218-1.758 2.263l-.176.174c-2.813 3.829-6.505 3.655-10.901 2.784a187.05 187.05 0 0 0-4.571-1.044c-2.814-.348-6.154-4.7-6.33-6.788 0-2.262 4.22-1.044 8.264-3.655 11.604-7.484 6.153-11.139 16.879-16.012 2.637-1.218 5.274-1.566 9.142-2.263 1.583-.348 2.99-.522 4.396-.522 3.34-.348 7.033-.348 8.967-.174 7.385.522 16.351 6.614 16 12.01z" fill="url(#E)" transform="translate(74.65 48.337)"/>
        <path d="M348.895 153.598s.514 2.577 1.543 4.295c.857 1.546 4.801 2.233 5.658 2.405.858.344-1.2 1.718-3.429 2.234-2.23.515-8.402.859-9.774.171-1.2-.687.858-.859 2.23-1.718 1.543-.859 2.057-3.951 1.543-5.326-.343-1.202 2.229-2.061 2.229-2.061z" fill="#A2A7AE" fill-rule="nonzero"/>
        <path d="M344.594 153.074c-1.547-1.034-2.062-4.137-1.203-4.826.172-.173.515-.173 3.952 1.379 1.719.69 2.578 1.034 2.922 1.896a2.399 2.399 0 0 1 0 1.551c-.172.345-.344.517-.687 1.207-.344.517-.344.517-.516.69-.344.344-.86 1.034-1.89 1.723 0-.344-.172-.69-.344-1.034 0-.172-.344-.69-.688-1.207-.343-.862-1.03-1.034-1.546-1.379z" fill="#1F243D" fill-rule="nonzero"/>
        <path d="M348.718 156.005s-1.03 1.551-2.921 1.379c-1.719-.173-1.719-3.965-.688-4.827.344-.172 1.031-.345 1.719-.172.344.172.515.345 1.031.517.516.172.687.172.86.172.171.173.343.517 0 1.724.343-.345.687-.345 1.03-.345l.172.173c0 .517-.343 1.034-1.203 1.379z" fill="#A2A7AE" fill-rule="nonzero"/>
        <path d="M290.342 161.272c2.993.174 9.682.35 14.26-3.843 7.745-7.162 3.872-20.788 1.232-26.552-3.169-6.638-8.098-10.481-11.09-12.752-3.698-2.795-5.986-4.542-8.803-4.193-7.041 1.049-11.97 15.373-8.098 19.565 1.233 1.398 2.465.524 6.338 1.747 1.232.35 10.21 3.144 11.795 9.782 1.056 4.542-1.76 9.957-6.69 13.45.352 1.049.704 1.922 1.056 2.796z" fill="url(#F)" transform="translate(74.65 48.337)"/>
        <path d="m291.442 166.734.527-.868c.879-1.39.527-3.3-1.054-4.167l-58.16-34.555-3.515 5.904 57.81 34.554c1.405 1.042 3.338.521 4.392-.868z" fill="url(#G)" fill-rule="nonzero" transform="translate(74.65 48.337)"/>
        <path d="M174.594 96.583c9.664-17.537 31.452-23.962 48.672-14.065 17.571 10.072 23.37 32.992 12.651 50.703-10.367 17.19-32.33 22.4-49.023 12.155-16.165-10.244-21.612-31.776-12.3-48.793zm56.403 33.513c8.962-14.76 4.217-33.86-10.542-42.368-14.409-8.335-32.858-2.952-40.94 11.807-7.908 14.412-3.34 32.645 10.366 40.98 13.881 8.508 32.33 3.993 41.116-10.419z" fill="url(#H)" fill-rule="nonzero" transform="translate(74.65 48.337)"/>
        <path d="M173.013 95.715c9.664-17.538 31.452-23.962 48.672-14.065 17.57 10.071 23.37 32.992 12.65 50.703-10.366 17.19-32.33 22.4-49.022 12.155-16.166-10.245-21.613-31.776-12.3-48.793zm56.227 33.513c8.962-14.76 4.217-33.86-10.542-42.369-14.409-8.334-32.858-2.951-40.941 11.808-7.907 14.412-3.338 32.644 10.367 40.98 14.057 8.508 32.506 3.993 41.116-10.42z" fill="url(#I)" fill-rule="nonzero" transform="translate(74.65 48.337)"/>
        <path d="M174.77 96.583c9.137-16.496 29.695-22.573 46.036-13.196 16.517 9.55 21.964 31.081 11.949 47.75-9.84 16.323-30.574 21.185-46.212 11.635-15.463-9.55-20.734-30.04-11.773-46.189zm54.47 32.645c8.962-14.76 4.217-33.86-10.542-42.369-14.409-8.334-32.858-2.951-40.941 11.808-7.907 14.412-3.338 32.644 10.367 40.98 14.057 8.508 32.506 3.993 41.116-10.42z" fill="url(#J)" fill-rule="nonzero" transform="translate(74.65 48.337)"/>
        <path d="m364.898 208.69-.71-1.54s-1.063 0-1.95-.513c-.531-.342-1.418-.513-1.595-.342-.177 0-1.241 0-.177.513 1.063.514 1.063.856.531 1.198-.531.342-2.127 1.198-2.836 1.37-.532 0 .532 1.026 1.064 1.026.531.171 1.595.342 2.836-.513.71-.172 2.837-1.198 2.837-1.198zM316.724 188.212s-2.535-.96-3.984-2.08c-1.449-1.12-2.717-.48-2.898.16 0 .64 2.355 2.24 3.26 2.56 1.087.48 3.622-.64 3.622-.64z" fill="#A2A7AE" fill-rule="nonzero"/>
        <g>
            <g transform="translate(186.988 125.253)">
                <use fill="#000" filter="url(#K)" xlink:href="#L"/>
                <use fill="#FFF" xlink:href="#L"/>
            </g>
            <path d="M220.964 154.502c-1.643-.04-3.007 1.324-3.007 3.004v21.523c0 2.288 2.47 3.745 4.407 2.601l18.227-10.761c1.936-1.144 1.936-4.06 0-5.204l-18.227-10.761a2.888 2.888 0 0 0-1.4-.402z" fill="#24AAC4"/>
        </g>
    </g>
</svg>
