<?xml version="1.0" encoding="UTF-8"?>
<svg width="24px" height="24px" viewBox="0 0 24 24" version="1.1" xmlns="http://www.w3.org/2000/svg" xmlns:xlink="http://www.w3.org/1999/xlink">
    <title>Youtube</title>
    <g id="Page-1" stroke="none" stroke-width="1" fill="none" fill-rule="evenodd">
        <g id="Contact" transform="translate(-1070.000000, -3128.000000)" fill="#B0B2B8" fill-rule="nonzero">
            <g id="Group-8" transform="translate(0.000000, 2567.000000)">
                <g id="Group-10" transform="translate(982.000000, 561.000000)">
                    <g id="socials" transform="translate(88.000000, 0.000000)">
                        <path d="M19.5,0 C21.9858462,0 24,2.01415385 24,4.5 L24,4.5 L24,19.5 C24,21.9858462 21.9858462,24 19.5,24 L19.5,24 L4.5,24 C2.01415385,24 0,21.9858462 0,19.5 L0,19.5 L0,4.5 C0,2.01415385 2.01415385,0 4.5,0 L4.5,0 Z M12.2807837,6.00097493 L11.7192163,6.00097493 C10.647151,6.00682449 6.81851429,6.04777143 5.7488,6.3344 C5.0608,6.5184 4.5184,7.0608 4.3344,7.7488 C4.04612414,8.82466207 4.00636195,11.5021888 4.00087751,12.2203486 L4.00087751,12.5796514 C4.00636195,13.2978112 4.04612414,15.9753379 4.3344,17.0512 C4.5184,17.7392 5.0608,18.2816 5.7488,18.4656 C6.81851429,18.7522286 10.647151,18.7931755 11.7192163,18.7990251 L11.9879515,18.7999922 C11.9959158,18.8 12,18.8 12,18.8 L12.0120485,18.7999922 L12.0120485,18.7999922 L12.2807837,18.7990251 C13.352849,18.7931755 17.1814857,18.7522286 18.2512,18.4656 C18.94,18.2816 19.4816,17.7392 19.6656,17.0512 C19.9538759,15.9753379 19.993638,13.2978112 19.9991225,12.5796514 L19.9999863,12.4119119 C20,12.4040466 20,12.4 20,12.4 L19.9999863,12.3880881 L19.9999863,12.3880881 L19.9991225,12.2203486 C19.993638,11.5021888 19.9538759,8.82466207 19.6656,7.7488 C19.4816,7.0608 18.9392,6.5184 18.2512,6.3344 C17.1814857,6.04777143 13.352849,6.00682449 12.2807837,6.00097493 Z M11,9.9752 L14.6,12.0536 C14.8664,12.2072 14.8664,12.5928 14.6,12.7464 L11,14.8248 C10.7336,14.9792 10.4,14.7864 10.4,14.4784 L10.4,10.3216 C10.4,10.0136 10.7336,9.8216 11,9.9752 Z" id="Youtube"></path>
                    </g>
                </g>
            </g>
        </g>
    </g>
</svg>